<?xml version="1.0" encoding="us-ascii" standalone="no"?><svg xmlns="http://www.w3.org/2000/svg" xmlns:xlink="http://www.w3.org/1999/xlink" contentStyleType="text/css" height="629px" preserveAspectRatio="none" style="width:770px;height:629px;background:#FFFFFF;" version="1.1" viewBox="0 0 770 629" width="770px" zoomAndPan="magnify"><defs/><g><!--class post_type--><g id="elem_post_type"><rect codeLine="1" fill="#F1F1F1" height="83.2188" id="post_type" rx="2.5" ry="2.5" style="stroke:#181818;stroke-width:0.5;" width="94" x="7" y="33.5"/><ellipse cx="22" cy="49.5" fill="#EB937F" rx="11" ry="11" style="stroke:#181818;stroke-width:1.0;"/><path d="M20.8594,50.2969 L20.8594,52.7969 L25.1875,52.7969 L25.1875,51.875 Q25.1875,51.2656 25.4219,51 Q25.6719,50.7344 26.0469,50.7344 Q26.4219,50.7344 26.6563,51 Q26.8906,51.2656 26.8906,51.875 L26.8906,54.5 L18.8906,54.5 Q18.2656,54.5 18,54.2656 Q17.75,54.0313 17.75,53.6406 Q17.75,53.2656 18.0156,53.0313 Q18.2813,52.7969 18.8906,52.7969 L19.1563,52.7969 L19.1563,46.1406 L18.8906,46.1406 Q18.2656,46.1406 18,45.9063 Q17.75,45.6719 17.75,45.2813 Q17.75,44.9063 18,44.6719 Q18.2656,44.4375 18.8906,44.4375 L26.5156,44.4375 L26.5156,47.0313 Q26.5156,47.6406 26.2813,47.9063 Q26.0625,48.1563 25.6719,48.1563 Q25.2969,48.1563 25.0625,47.9063 Q24.8281,47.6406 24.8281,47.0313 L24.8281,46.1406 L20.8594,46.1406 L20.8594,48.5938 L22.3438,48.5938 Q22.3438,47.9375 22.4688,47.75 Q22.7344,47.3438 23.2031,47.3438 Q23.5781,47.3438 23.8125,47.6094 Q24.0469,47.8594 24.0469,48.4688 L24.0469,50.4375 Q24.0469,50.9844 23.9219,51.1719 Q23.6563,51.5625 23.2031,51.5625 Q22.7344,51.5625 22.4688,51.1563 Q22.3438,50.9688 22.3438,50.2969 L20.8594,50.2969 Z " fill="#000000"/><text fill="#000000" font-family="sans-serif" font-size="14" lengthAdjust="spacing" textLength="62" x="36" y="55.2285">post_type</text><line style="stroke:#181818;stroke-width:0.5;" x1="8" x2="100" y1="65.5" y2="65.5"/><text fill="#000000" font-family="sans-serif" font-size="14" lengthAdjust="spacing" textLength="70" x="13" y="84.0332">QUESTION</text><text fill="#000000" font-family="sans-serif" font-size="14" lengthAdjust="spacing" textLength="59" x="13" y="101.6426">ANSWER</text><line style="stroke:#181818;stroke-width:0.5;" x1="8" x2="100" y1="108.7188" y2="108.7188"/></g><!--class user_type--><g id="elem_user_type"><rect codeLine="6" fill="#F1F1F1" height="83.2188" id="user_type" rx="2.5" ry="2.5" style="stroke:#181818;stroke-width:0.5;" width="95" x="136.5" y="33.5"/><ellipse cx="151.5" cy="49.5" fill="#EB937F" rx="11" ry="11" style="stroke:#181818;stroke-width:1.0;"/><path d="M150.3594,50.2969 L150.3594,52.7969 L154.6875,52.7969 L154.6875,51.875 Q154.6875,51.2656 154.9219,51 Q155.1719,50.7344 155.5469,50.7344 Q155.9219,50.7344 156.1563,51 Q156.3906,51.2656 156.3906,51.875 L156.3906,54.5 L148.3906,54.5 Q147.7656,54.5 147.5,54.2656 Q147.25,54.0313 147.25,53.6406 Q147.25,53.2656 147.5156,53.0313 Q147.7813,52.7969 148.3906,52.7969 L148.6563,52.7969 L148.6563,46.1406 L148.3906,46.1406 Q147.7656,46.1406 147.5,45.9063 Q147.25,45.6719 147.25,45.2813 Q147.25,44.9063 147.5,44.6719 Q147.7656,44.4375 148.3906,44.4375 L156.0156,44.4375 L156.0156,47.0313 Q156.0156,47.6406 155.7813,47.9063 Q155.5625,48.1563 155.1719,48.1563 Q154.7969,48.1563 154.5625,47.9063 Q154.3281,47.6406 154.3281,47.0313 L154.3281,46.1406 L150.3594,46.1406 L150.3594,48.5938 L151.8438,48.5938 Q151.8438,47.9375 151.9688,47.75 Q152.2344,47.3438 152.7031,47.3438 Q153.0781,47.3438 153.3125,47.6094 Q153.5469,47.8594 153.5469,48.4688 L153.5469,50.4375 Q153.5469,50.9844 153.4219,51.1719 Q153.1563,51.5625 152.7031,51.5625 Q152.2344,51.5625 151.9688,51.1563 Q151.8438,50.9688 151.8438,50.2969 L150.3594,50.2969 Z " fill="#000000"/><text fill="#000000" font-family="sans-serif" font-size="14" lengthAdjust="spacing" textLength="63" x="165.5" y="55.2285">user_type</text><line style="stroke:#181818;stroke-width:0.5;" x1="137.5" x2="230.5" y1="65.5" y2="65.5"/><text fill="#000000" font-family="sans-serif" font-size="14" lengthAdjust="spacing" textLength="71" x="142.5" y="84.0332">EXTERNAL</text><text fill="#000000" font-family="sans-serif" font-size="14" lengthAdjust="spacing" textLength="66" x="142.5" y="101.6426">INTERNAL</text><line style="stroke:#181818;stroke-width:0.5;" x1="137.5" x2="230.5" y1="108.7188" y2="108.7188"/></g><!--class vote_type--><g id="elem_vote_type"><rect codeLine="11" fill="#F1F1F1" height="83.2188" id="vote_type" rx="2.5" ry="2.5" style="stroke:#181818;stroke-width:0.5;" width="94" x="7" y="264.5"/><ellipse cx="22" cy="280.5" fill="#EB937F" rx="11" ry="11" style="stroke:#181818;stroke-width:1.0;"/><path d="M20.8594,281.2969 L20.8594,283.7969 L25.1875,283.7969 L25.1875,282.875 Q25.1875,282.2656 25.4219,282 Q25.6719,281.7344 26.0469,281.7344 Q26.4219,281.7344 26.6563,282 Q26.8906,282.2656 26.8906,282.875 L26.8906,285.5 L18.8906,285.5 Q18.2656,285.5 18,285.2656 Q17.75,285.0313 17.75,284.6406 Q17.75,284.2656 18.0156,284.0313 Q18.2813,283.7969 18.8906,283.7969 L19.1563,283.7969 L19.1563,277.1406 L18.8906,277.1406 Q18.2656,277.1406 18,276.9063 Q17.75,276.6719 17.75,276.2813 Q17.75,275.9063 18,275.6719 Q18.2656,275.4375 18.8906,275.4375 L26.5156,275.4375 L26.5156,278.0313 Q26.5156,278.6406 26.2813,278.9063 Q26.0625,279.1563 25.6719,279.1563 Q25.2969,279.1563 25.0625,278.9063 Q24.8281,278.6406 24.8281,278.0313 L24.8281,277.1406 L20.8594,277.1406 L20.8594,279.5938 L22.3438,279.5938 Q22.3438,278.9375 22.4688,278.75 Q22.7344,278.3438 23.2031,278.3438 Q23.5781,278.3438 23.8125,278.6094 Q24.0469,278.8594 24.0469,279.4688 L24.0469,281.4375 Q24.0469,281.9844 23.9219,282.1719 Q23.6563,282.5625 23.2031,282.5625 Q22.7344,282.5625 22.4688,282.1563 Q22.3438,281.9688 22.3438,281.2969 L20.8594,281.2969 Z " fill="#000000"/><text fill="#000000" font-family="sans-serif" font-size="14" lengthAdjust="spacing" textLength="62" x="36" y="286.2285">vote_type</text><line style="stroke:#181818;stroke-width:0.5;" x1="8" x2="100" y1="296.5" y2="296.5"/><text fill="#000000" font-family="sans-serif" font-size="14" lengthAdjust="spacing" textLength="62" x="13" y="315.0332">POSITIVE</text><text fill="#000000" font-family="sans-serif" font-size="14" lengthAdjust="spacing" textLength="68" x="13" y="332.6426">NEGATIVE</text><line style="stroke:#181818;stroke-width:0.5;" x1="8" x2="100" y1="339.7188" y2="339.7188"/></g><!--class users--><g id="elem_users"><rect codeLine="16" fill="#F1F1F1" height="136.0469" id="users" rx="2.5" ry="2.5" style="stroke:#181818;stroke-width:0.5;" width="164" x="273" y="7"/><ellipse cx="333.25" cy="23" fill="#ADD1B2" rx="11" ry="11" style="stroke:#181818;stroke-width:1.0;"/><path d="M332.1094,23.7969 L332.1094,26.2969 L336.4375,26.2969 L336.4375,25.375 Q336.4375,24.7656 336.6719,24.5 Q336.9219,24.2344 337.2969,24.2344 Q337.6719,24.2344 337.9063,24.5 Q338.1406,24.7656 338.1406,25.375 L338.1406,28 L330.1406,28 Q329.5156,28 329.25,27.7656 Q329,27.5313 329,27.1406 Q329,26.7656 329.2656,26.5313 Q329.5313,26.2969 330.1406,26.2969 L330.4063,26.2969 L330.4063,19.6406 L330.1406,19.6406 Q329.5156,19.6406 329.25,19.4063 Q329,19.1719 329,18.7813 Q329,18.4063 329.25,18.1719 Q329.5156,17.9375 330.1406,17.9375 L337.7656,17.9375 L337.7656,20.5313 Q337.7656,21.1406 337.5313,21.4063 Q337.3125,21.6563 336.9219,21.6563 Q336.5469,21.6563 336.3125,21.4063 Q336.0781,21.1406 336.0781,20.5313 L336.0781,19.6406 L332.1094,19.6406 L332.1094,22.0938 L333.5938,22.0938 Q333.5938,21.4375 333.7188,21.25 Q333.9844,20.8438 334.4531,20.8438 Q334.8281,20.8438 335.0625,21.1094 Q335.2969,21.3594 335.2969,21.9688 L335.2969,23.9375 Q335.2969,24.4844 335.1719,24.6719 Q334.9063,25.0625 334.4531,25.0625 Q333.9844,25.0625 333.7188,24.6563 Q333.5938,24.4688 333.5938,23.7969 L332.1094,23.7969 Z " fill="#000000"/><text fill="#000000" font-family="sans-serif" font-size="14" lengthAdjust="spacing" textLength="35" x="353.75" y="28.7285">users</text><line style="stroke:#181818;stroke-width:0.5;" x1="274" x2="436" y1="39" y2="39"/><ellipse cx="284" cy="53.3047" fill="#000000" rx="3" ry="3" style="stroke:#000000;stroke-width:1.0;"/><text fill="#000000" font-family="sans-serif" font-size="14" lengthAdjust="spacing" textLength="57" x="293" y="57.5332">id : bigint</text><line style="stroke:#181818;stroke-width:1.0;" x1="274" x2="436" y1="64.6094" y2="64.6094"/><ellipse cx="284" cy="78.9141" fill="#000000" rx="3" ry="3" style="stroke:#000000;stroke-width:1.0;"/><text fill="#000000" font-family="sans-serif" font-size="14" lengthAdjust="spacing" textLength="138" x="293" y="83.1426">user_type : user_type</text><text fill="#000000" font-family="sans-serif" font-size="14" lengthAdjust="spacing" textLength="105" x="293" y="100.752">internal_id : uuid</text><text fill="#000000" font-family="sans-serif" font-size="14" lengthAdjust="spacing" textLength="115" x="293" y="118.3613">external_id : bigint</text><text fill="#000000" font-family="sans-serif" font-size="14" lengthAdjust="spacing" textLength="95" x="293" y="135.9707">name : varchar</text></g><!--class posts--><g id="elem_posts"><rect codeLine="25" fill="#F1F1F1" height="206.4844" id="posts" rx="2.5" ry="2.5" style="stroke:#181818;stroke-width:0.5;" width="148" x="281" y="203"/><ellipse cx="333.75" cy="219" fill="#ADD1B2" rx="11" ry="11" style="stroke:#181818;stroke-width:1.0;"/><path d="M332.6094,219.7969 L332.6094,222.2969 L336.9375,222.2969 L336.9375,221.375 Q336.9375,220.7656 337.1719,220.5 Q337.4219,220.2344 337.7969,220.2344 Q338.1719,220.2344 338.4063,220.5 Q338.6406,220.7656 338.6406,221.375 L338.6406,224 L330.6406,224 Q330.0156,224 329.75,223.7656 Q329.5,223.5313 329.5,223.1406 Q329.5,222.7656 329.7656,222.5313 Q330.0313,222.2969 330.6406,222.2969 L330.9063,222.2969 L330.9063,215.6406 L330.6406,215.6406 Q330.0156,215.6406 329.75,215.4063 Q329.5,215.1719 329.5,214.7813 Q329.5,214.4063 329.75,214.1719 Q330.0156,213.9375 330.6406,213.9375 L338.2656,213.9375 L338.2656,216.5313 Q338.2656,217.1406 338.0313,217.4063 Q337.8125,217.6563 337.4219,217.6563 Q337.0469,217.6563 336.8125,217.4063 Q336.5781,217.1406 336.5781,216.5313 L336.5781,215.6406 L332.6094,215.6406 L332.6094,218.0938 L334.0938,218.0938 Q334.0938,217.4375 334.2188,217.25 Q334.4844,216.8438 334.9531,216.8438 Q335.3281,216.8438 335.5625,217.1094 Q335.7969,217.3594 335.7969,217.9688 L335.7969,219.9375 Q335.7969,220.4844 335.6719,220.6719 Q335.4063,221.0625 334.9531,221.0625 Q334.4844,221.0625 334.2188,220.6563 Q334.0938,220.4688 334.0938,219.7969 L332.6094,219.7969 Z " fill="#000000"/><text fill="#000000" font-family="sans-serif" font-size="14" lengthAdjust="spacing" textLength="34" x="354.25" y="224.7285">posts</text><line style="stroke:#181818;stroke-width:0.5;" x1="282" x2="428" y1="235" y2="235"/><ellipse cx="292" cy="249.3047" fill="#000000" rx="3" ry="3" style="stroke:#000000;stroke-width:1.0;"/><text fill="#000000" font-family="sans-serif" font-size="14" lengthAdjust="spacing" textLength="57" x="301" y="253.5332">id : bigint</text><line style="stroke:#181818;stroke-width:1.0;" x1="282" x2="428" y1="260.6094" y2="260.6094"/><text fill="#000000" font-family="sans-serif" font-size="14" lengthAdjust="spacing" textLength="82" x="287" y="279.1426">title : varchar</text><text fill="#000000" font-family="sans-serif" font-size="14" lengthAdjust="spacing" textLength="65" x="287" y="296.752">body : text</text><text fill="#000000" font-family="sans-serif" font-size="14" lengthAdjust="spacing" textLength="136" x="287" y="314.3613">post_type : post_type</text><text fill="#000000" font-family="sans-serif" font-size="14" lengthAdjust="spacing" textLength="106" x="287" y="331.9707">author_id : bigint</text><text fill="#000000" font-family="sans-serif" font-size="14" lengthAdjust="spacing" textLength="106" x="287" y="349.5801">parent_id : bigint</text><text fill="#000000" font-family="sans-serif" font-size="14" lengthAdjust="spacing" textLength="110" x="287" y="367.1895">answer_id : bigint</text><text fill="#000000" font-family="sans-serif" font-size="14" lengthAdjust="spacing" textLength="124" x="287" y="384.7988">created : timestamp</text><text fill="#000000" font-family="sans-serif" font-size="14" lengthAdjust="spacing" textLength="128" x="287" y="402.4082">updated : timestamp</text></g><!--class votes--><g id="elem_votes"><rect codeLine="38" fill="#F1F1F1" height="136.0469" id="votes" rx="2.5" ry="2.5" style="stroke:#181818;stroke-width:0.5;" width="136" x="434" y="478"/><ellipse cx="480.75" cy="494" fill="#ADD1B2" rx="11" ry="11" style="stroke:#181818;stroke-width:1.0;"/><path d="M479.6094,494.7969 L479.6094,497.2969 L483.9375,497.2969 L483.9375,496.375 Q483.9375,495.7656 484.1719,495.5 Q484.4219,495.2344 484.7969,495.2344 Q485.1719,495.2344 485.4063,495.5 Q485.6406,495.7656 485.6406,496.375 L485.6406,499 L477.6406,499 Q477.0156,499 476.75,498.7656 Q476.5,498.5313 476.5,498.1406 Q476.5,497.7656 476.7656,497.5313 Q477.0313,497.2969 477.6406,497.2969 L477.9063,497.2969 L477.9063,490.6406 L477.6406,490.6406 Q477.0156,490.6406 476.75,490.4063 Q476.5,490.1719 476.5,489.7813 Q476.5,489.4063 476.75,489.1719 Q477.0156,488.9375 477.6406,488.9375 L485.2656,488.9375 L485.2656,491.5313 Q485.2656,492.1406 485.0313,492.4063 Q484.8125,492.6563 484.4219,492.6563 Q484.0469,492.6563 483.8125,492.4063 Q483.5781,492.1406 483.5781,491.5313 L483.5781,490.6406 L479.6094,490.6406 L479.6094,493.0938 L481.0938,493.0938 Q481.0938,492.4375 481.2188,492.25 Q481.4844,491.8438 481.9531,491.8438 Q482.3281,491.8438 482.5625,492.1094 Q482.7969,492.3594 482.7969,492.9688 L482.7969,494.9375 Q482.7969,495.4844 482.6719,495.6719 Q482.4063,496.0625 481.9531,496.0625 Q481.4844,496.0625 481.2188,495.6563 Q481.0938,495.4688 481.0938,494.7969 L479.6094,494.7969 Z " fill="#000000"/><text fill="#000000" font-family="sans-serif" font-size="14" lengthAdjust="spacing" textLength="34" x="501.25" y="499.7285">votes</text><line style="stroke:#181818;stroke-width:0.5;" x1="435" x2="569" y1="510" y2="510"/><ellipse cx="445" cy="524.3047" fill="#000000" rx="3" ry="3" style="stroke:#000000;stroke-width:1.0;"/><text fill="#000000" font-family="sans-serif" font-size="14" lengthAdjust="spacing" textLength="57" x="454" y="528.5332">id : bigint</text><line style="stroke:#181818;stroke-width:1.0;" x1="435" x2="569" y1="535.6094" y2="535.6094"/><text fill="#000000" font-family="sans-serif" font-size="14" lengthAdjust="spacing" textLength="106" x="440" y="554.1426">author_id : bigint</text><text fill="#000000" font-family="sans-serif" font-size="14" lengthAdjust="spacing" textLength="92" x="440" y="571.752">post_id : bigint</text><text fill="#000000" font-family="sans-serif" font-size="14" lengthAdjust="spacing" textLength="124" x="440" y="589.3613">created : timestamp</text><text fill="#000000" font-family="sans-serif" font-size="14" lengthAdjust="spacing" textLength="101" x="440" y="606.9707">type : vote_type</text></g><!--class comments--><g id="elem_comments"><rect codeLine="47" fill="#F1F1F1" height="153.6563" id="comments" rx="2.5" ry="2.5" style="stroke:#181818;stroke-width:0.5;" width="140" x="82" y="469"/><ellipse cx="116.8" cy="485" fill="#ADD1B2" rx="11" ry="11" style="stroke:#181818;stroke-width:1.0;"/><path d="M115.6594,485.7969 L115.6594,488.2969 L119.9875,488.2969 L119.9875,487.375 Q119.9875,486.7656 120.2219,486.5 Q120.4719,486.2344 120.8469,486.2344 Q121.2219,486.2344 121.4563,486.5 Q121.6906,486.7656 121.6906,487.375 L121.6906,490 L113.6906,490 Q113.0656,490 112.8,489.7656 Q112.55,489.5313 112.55,489.1406 Q112.55,488.7656 112.8156,488.5313 Q113.0813,488.2969 113.6906,488.2969 L113.9563,488.2969 L113.9563,481.6406 L113.6906,481.6406 Q113.0656,481.6406 112.8,481.4063 Q112.55,481.1719 112.55,480.7813 Q112.55,480.4063 112.8,480.1719 Q113.0656,479.9375 113.6906,479.9375 L121.3156,479.9375 L121.3156,482.5313 Q121.3156,483.1406 121.0813,483.4063 Q120.8625,483.6563 120.4719,483.6563 Q120.0969,483.6563 119.8625,483.4063 Q119.6281,483.1406 119.6281,482.5313 L119.6281,481.6406 L115.6594,481.6406 L115.6594,484.0938 L117.1438,484.0938 Q117.1438,483.4375 117.2688,483.25 Q117.5344,482.8438 118.0031,482.8438 Q118.3781,482.8438 118.6125,483.1094 Q118.8469,483.3594 118.8469,483.9688 L118.8469,485.9375 Q118.8469,486.4844 118.7219,486.6719 Q118.4563,487.0625 118.0031,487.0625 Q117.5344,487.0625 117.2688,486.6563 Q117.1438,486.4688 117.1438,485.7969 L115.6594,485.7969 Z " fill="#000000"/><text fill="#000000" font-family="sans-serif" font-size="14" lengthAdjust="spacing" textLength="64" x="135.2" y="490.7285">comments</text><line style="stroke:#181818;stroke-width:0.5;" x1="83" x2="221" y1="501" y2="501"/><ellipse cx="93" cy="515.3047" fill="#000000" rx="3" ry="3" style="stroke:#000000;stroke-width:1.0;"/><text fill="#000000" font-family="sans-serif" font-size="14" lengthAdjust="spacing" textLength="57" x="102" y="519.5332">id : bigint</text><line style="stroke:#181818;stroke-width:1.0;" x1="83" x2="221" y1="526.6094" y2="526.6094"/><text fill="#000000" font-family="sans-serif" font-size="14" lengthAdjust="spacing" textLength="65" x="88" y="545.1426">body : text</text><text fill="#000000" font-family="sans-serif" font-size="14" lengthAdjust="spacing" textLength="106" x="88" y="562.752">author_id : bigint</text><text fill="#000000" font-family="sans-serif" font-size="14" lengthAdjust="spacing" textLength="92" x="88" y="580.3613">post_id : bigint</text><text fill="#000000" font-family="sans-serif" font-size="14" lengthAdjust="spacing" textLength="124" x="88" y="597.9707">created : timestamp</text><text fill="#000000" font-family="sans-serif" font-size="14" lengthAdjust="spacing" textLength="128" x="88" y="615.5801">updated : timestamp</text></g><!--class tags--><g id="elem_tags"><rect codeLine="57" fill="#F1F1F1" height="100.8281" id="tags" rx="2.5" ry="2.5" style="stroke:#181818;stroke-width:0.5;" width="107" x="627.5" y="24.5"/><ellipse cx="664.1" cy="40.5" fill="#ADD1B2" rx="11" ry="11" style="stroke:#181818;stroke-width:1.0;"/><path d="M662.9594,41.2969 L662.9594,43.7969 L667.2875,43.7969 L667.2875,42.875 Q667.2875,42.2656 667.5219,42 Q667.7719,41.7344 668.1469,41.7344 Q668.5219,41.7344 668.7563,42 Q668.9906,42.2656 668.9906,42.875 L668.9906,45.5 L660.9906,45.5 Q660.3656,45.5 660.1,45.2656 Q659.85,45.0313 659.85,44.6406 Q659.85,44.2656 660.1156,44.0313 Q660.3813,43.7969 660.9906,43.7969 L661.2563,43.7969 L661.2563,37.1406 L660.9906,37.1406 Q660.3656,37.1406 660.1,36.9063 Q659.85,36.6719 659.85,36.2813 Q659.85,35.9063 660.1,35.6719 Q660.3656,35.4375 660.9906,35.4375 L668.6156,35.4375 L668.6156,38.0313 Q668.6156,38.6406 668.3813,38.9063 Q668.1625,39.1563 667.7719,39.1563 Q667.3969,39.1563 667.1625,38.9063 Q666.9281,38.6406 666.9281,38.0313 L666.9281,37.1406 L662.9594,37.1406 L662.9594,39.5938 L664.4438,39.5938 Q664.4438,38.9375 664.5688,38.75 Q664.8344,38.3438 665.3031,38.3438 Q665.6781,38.3438 665.9125,38.6094 Q666.1469,38.8594 666.1469,39.4688 L666.1469,41.4375 Q666.1469,41.9844 666.0219,42.1719 Q665.7563,42.5625 665.3031,42.5625 Q664.8344,42.5625 664.5688,42.1563 Q664.4438,41.9688 664.4438,41.2969 L662.9594,41.2969 Z " fill="#000000"/><text fill="#000000" font-family="sans-serif" font-size="14" lengthAdjust="spacing" textLength="27" x="682.9" y="46.2285">tags</text><line style="stroke:#181818;stroke-width:0.5;" x1="628.5" x2="733.5" y1="56.5" y2="56.5"/><ellipse cx="638.5" cy="70.8047" fill="#000000" rx="3" ry="3" style="stroke:#000000;stroke-width:1.0;"/><text fill="#000000" font-family="sans-serif" font-size="14" lengthAdjust="spacing" textLength="57" x="647.5" y="75.0332">id : bigint</text><line style="stroke:#181818;stroke-width:1.0;" x1="628.5" x2="733.5" y1="82.1094" y2="82.1094"/><text fill="#000000" font-family="sans-serif" font-size="14" lengthAdjust="spacing" textLength="95" x="633.5" y="100.6426">name : varchar</text><text fill="#000000" font-family="sans-serif" font-size="14" lengthAdjust="spacing" textLength="92" x="633.5" y="118.252">post_id : bigint</text></g><!--class posts_tags--><g id="elem_posts_tags"><rect codeLine="64" fill="#F1F1F1" height="83.2188" id="posts_tags" rx="2.5" ry="2.5" style="stroke:#181818;stroke-width:0.5;" width="118" x="645" y="504.5"/><ellipse cx="667.65" cy="520.5" fill="#ADD1B2" rx="11" ry="11" style="stroke:#181818;stroke-width:1.0;"/><path d="M666.5094,521.2969 L666.5094,523.7969 L670.8375,523.7969 L670.8375,522.875 Q670.8375,522.2656 671.0719,522 Q671.3219,521.7344 671.6969,521.7344 Q672.0719,521.7344 672.3063,522 Q672.5406,522.2656 672.5406,522.875 L672.5406,525.5 L664.5406,525.5 Q663.9156,525.5 663.65,525.2656 Q663.4,525.0313 663.4,524.6406 Q663.4,524.2656 663.6656,524.0313 Q663.9313,523.7969 664.5406,523.7969 L664.8063,523.7969 L664.8063,517.1406 L664.5406,517.1406 Q663.9156,517.1406 663.65,516.9063 Q663.4,516.6719 663.4,516.2813 Q663.4,515.9063 663.65,515.6719 Q663.9156,515.4375 664.5406,515.4375 L672.1656,515.4375 L672.1656,518.0313 Q672.1656,518.6406 671.9313,518.9063 Q671.7125,519.1563 671.3219,519.1563 Q670.9469,519.1563 670.7125,518.9063 Q670.4781,518.6406 670.4781,518.0313 L670.4781,517.1406 L666.5094,517.1406 L666.5094,519.5938 L667.9938,519.5938 Q667.9938,518.9375 668.1188,518.75 Q668.3844,518.3438 668.8531,518.3438 Q669.2281,518.3438 669.4625,518.6094 Q669.6969,518.8594 669.6969,519.4688 L669.6969,521.4375 Q669.6969,521.9844 669.5719,522.1719 Q669.3063,522.5625 668.8531,522.5625 Q668.3844,522.5625 668.1188,522.1563 Q667.9938,521.9688 667.9938,521.2969 L666.5094,521.2969 Z " fill="#000000"/><text fill="#000000" font-family="sans-serif" font-size="14" lengthAdjust="spacing" textLength="69" x="683.35" y="526.2285">posts_tags</text><line style="stroke:#181818;stroke-width:0.5;" x1="646" x2="762" y1="536.5" y2="536.5"/><ellipse cx="656" cy="550.8047" fill="#000000" rx="3" ry="3" style="stroke:#000000;stroke-width:1.0;"/><text fill="#000000" font-family="sans-serif" font-size="14" lengthAdjust="spacing" textLength="92" x="665" y="555.0332">post_id : bigint</text><ellipse cx="656" cy="568.4141" fill="#000000" rx="3" ry="3" style="stroke:#000000;stroke-width:1.0;"/><text fill="#000000" font-family="sans-serif" font-size="14" lengthAdjust="spacing" textLength="85" x="665" y="572.6426">tag_id : bigint</text><line style="stroke:#181818;stroke-width:0.5;" x1="646" x2="762" y1="579.7188" y2="579.7188"/></g><!--class posts_subscribes--><g id="elem_posts_subscribes"><rect codeLine="69" fill="#F1F1F1" height="83.2188" id="posts_subscribes" rx="2.5" ry="2.5" style="stroke:#181818;stroke-width:0.5;" width="142" x="257" y="504.5"/><ellipse cx="272" cy="520.5" fill="#ADD1B2" rx="11" ry="11" style="stroke:#181818;stroke-width:1.0;"/><path d="M270.8594,521.2969 L270.8594,523.7969 L275.1875,523.7969 L275.1875,522.875 Q275.1875,522.2656 275.4219,522 Q275.6719,521.7344 276.0469,521.7344 Q276.4219,521.7344 276.6563,522 Q276.8906,522.2656 276.8906,522.875 L276.8906,525.5 L268.8906,525.5 Q268.2656,525.5 268,525.2656 Q267.75,525.0313 267.75,524.6406 Q267.75,524.2656 268.0156,524.0313 Q268.2813,523.7969 268.8906,523.7969 L269.1563,523.7969 L269.1563,517.1406 L268.8906,517.1406 Q268.2656,517.1406 268,516.9063 Q267.75,516.6719 267.75,516.2813 Q267.75,515.9063 268,515.6719 Q268.2656,515.4375 268.8906,515.4375 L276.5156,515.4375 L276.5156,518.0313 Q276.5156,518.6406 276.2813,518.9063 Q276.0625,519.1563 275.6719,519.1563 Q275.2969,519.1563 275.0625,518.9063 Q274.8281,518.6406 274.8281,518.0313 L274.8281,517.1406 L270.8594,517.1406 L270.8594,519.5938 L272.3438,519.5938 Q272.3438,518.9375 272.4688,518.75 Q272.7344,518.3438 273.2031,518.3438 Q273.5781,518.3438 273.8125,518.6094 Q274.0469,518.8594 274.0469,519.4688 L274.0469,521.4375 Q274.0469,521.9844 273.9219,522.1719 Q273.6563,522.5625 273.2031,522.5625 Q272.7344,522.5625 272.4688,522.1563 Q272.3438,521.9688 272.3438,521.2969 L270.8594,521.2969 Z " fill="#000000"/><text fill="#000000" font-family="sans-serif" font-size="14" lengthAdjust="spacing" textLength="110" x="286" y="526.2285">posts_subscribes</text><line style="stroke:#181818;stroke-width:0.5;" x1="258" x2="398" y1="536.5" y2="536.5"/><ellipse cx="268" cy="550.8047" fill="#000000" rx="3" ry="3" style="stroke:#000000;stroke-width:1.0;"/><text fill="#000000" font-family="sans-serif" font-size="14" lengthAdjust="spacing" textLength="92" x="277" y="555.0332">post_id : bigint</text><ellipse cx="268" cy="568.4141" fill="#000000" rx="3" ry="3" style="stroke:#000000;stroke-width:1.0;"/><text fill="#000000" font-family="sans-serif" font-size="14" lengthAdjust="spacing" textLength="93" x="277" y="572.6426">user_id : bigint</text><line style="stroke:#181818;stroke-width:0.5;" x1="258" x2="398" y1="579.7188" y2="579.7188"/></g><!--class tags_subscribes--><g id="elem_tags_subscribes"><rect codeLine="74" fill="#F1F1F1" height="83.2188" id="tags_subscribes" rx="2.5" ry="2.5" style="stroke:#181818;stroke-width:0.5;" width="135" x="553.5" y="264.5"/><ellipse cx="568.5" cy="280.5" fill="#ADD1B2" rx="11" ry="11" style="stroke:#181818;stroke-width:1.0;"/><path d="M567.3594,281.2969 L567.3594,283.7969 L571.6875,283.7969 L571.6875,282.875 Q571.6875,282.2656 571.9219,282 Q572.1719,281.7344 572.5469,281.7344 Q572.9219,281.7344 573.1563,282 Q573.3906,282.2656 573.3906,282.875 L573.3906,285.5 L565.3906,285.5 Q564.7656,285.5 564.5,285.2656 Q564.25,285.0313 564.25,284.6406 Q564.25,284.2656 564.5156,284.0313 Q564.7813,283.7969 565.3906,283.7969 L565.6563,283.7969 L565.6563,277.1406 L565.3906,277.1406 Q564.7656,277.1406 564.5,276.9063 Q564.25,276.6719 564.25,276.2813 Q564.25,275.9063 564.5,275.6719 Q564.7656,275.4375 565.3906,275.4375 L573.0156,275.4375 L573.0156,278.0313 Q573.0156,278.6406 572.7813,278.9063 Q572.5625,279.1563 572.1719,279.1563 Q571.7969,279.1563 571.5625,278.9063 Q571.3281,278.6406 571.3281,278.0313 L571.3281,277.1406 L567.3594,277.1406 L567.3594,279.5938 L568.8438,279.5938 Q568.8438,278.9375 568.9688,278.75 Q569.2344,278.3438 569.7031,278.3438 Q570.0781,278.3438 570.3125,278.6094 Q570.5469,278.8594 570.5469,279.4688 L570.5469,281.4375 Q570.5469,281.9844 570.4219,282.1719 Q570.1563,282.5625 569.7031,282.5625 Q569.2344,282.5625 568.9688,282.1563 Q568.8438,281.9688 568.8438,281.2969 L567.3594,281.2969 Z " fill="#000000"/><text fill="#000000" font-family="sans-serif" font-size="14" lengthAdjust="spacing" textLength="103" x="582.5" y="286.2285">tags_subscribes</text><line style="stroke:#181818;stroke-width:0.5;" x1="554.5" x2="687.5" y1="296.5" y2="296.5"/><ellipse cx="564.5" cy="310.8047" fill="#000000" rx="3" ry="3" style="stroke:#000000;stroke-width:1.0;"/><text fill="#000000" font-family="sans-serif" font-size="14" lengthAdjust="spacing" textLength="85" x="573.5" y="315.0332">tag_id : bigint</text><ellipse cx="564.5" cy="328.4141" fill="#000000" rx="3" ry="3" style="stroke:#000000;stroke-width:1.0;"/><text fill="#000000" font-family="sans-serif" font-size="14" lengthAdjust="spacing" textLength="93" x="573.5" y="332.6426">user_id : bigint</text><line style="stroke:#181818;stroke-width:0.5;" x1="554.5" x2="687.5" y1="339.7188" y2="339.7188"/></g><!--link users to posts--><g id="link_users_posts"><path codeLine="79" d="M355,151.16 C355,169.9 355,164.69 355,184.96 " fill="none" id="users-posts" style="stroke:#181818;stroke-width:1.0;"/><line style="stroke:#181818;stroke-width:1.0;" x1="351" x2="359" y1="147.16" y2="147.16"/><line style="stroke:#181818;stroke-width:1.0;" x1="351" x2="359" y1="150.16" y2="150.16"/><line style="stroke:#181818;stroke-width:1.0;" x1="355" x2="355" y1="151.16" y2="143.16"/><line style="stroke:#181818;stroke-width:1.0;" x1="355" x2="361" y1="194.96" y2="202.96"/><line style="stroke:#181818;stroke-width:1.0;" x1="355" x2="349" y1="194.96" y2="202.96"/><line style="stroke:#181818;stroke-width:1.0;" x1="355" x2="355" y1="194.96" y2="202.96"/><ellipse cx="355" cy="188.96" fill="none" rx="4" ry="4" style="stroke:#181818;stroke-width:1.0;"/></g><!--link users to comments--><g id="link_users_comments"><path codeLine="80" d="M275.5413,149.0928 C259.0913,167.1428 248.53,181.69 237,203 C191.35,287.34 172.1778,378.7872 162.2878,450.8372 " fill="none" id="users-comments" style="stroke:#181818;stroke-width:1.0;"/><line style="stroke:#181818;stroke-width:1.0;" x1="275.2792" x2="281.1921" y1="143.4421" y2="148.8308"/><line style="stroke:#181818;stroke-width:1.0;" x1="273.2585" x2="279.1713" y1="145.6594" y2="151.0481"/><line style="stroke:#181818;stroke-width:1.0;" x1="275.5413" x2="280.93" y1="149.0928" y2="143.18"/><line style="stroke:#181818;stroke-width:1.0;" x1="160.9279" x2="165.7843" y1="460.7443" y2="469.4859"/><line style="stroke:#181818;stroke-width:1.0;" x1="160.9279" x2="153.8957" y1="460.7443" y2="467.8541"/><line style="stroke:#181818;stroke-width:1.0;" x1="160.9279" x2="159.84" y1="460.7443" y2="468.67"/><ellipse cx="161.7439" cy="454.8001" fill="none" rx="4" ry="4" style="stroke:#181818;stroke-width:1.0;"/></g><!--link users to votes--><g id="link_users_votes"><path codeLine="81" d="M430.7162,149.4534 C445.7562,167.4134 454.74,181.68 464,203 C502.81,292.31 508.0244,388.5448 506.3844,459.7548 " fill="none" id="users-votes" style="stroke:#181818;stroke-width:1.0;"/><line style="stroke:#181818;stroke-width:1.0;" x1="425.0814" x2="431.2148" y1="148.9548" y2="143.8186"/><line style="stroke:#181818;stroke-width:1.0;" x1="427.0075" x2="433.1409" y1="151.2549" y2="146.1186"/><line style="stroke:#181818;stroke-width:1.0;" x1="430.7162" x2="425.58" y1="149.4534" y2="143.32"/><line style="stroke:#181818;stroke-width:1.0;" x1="506.1542" x2="511.9684" y1="469.7521" y2="477.8881"/><line style="stroke:#181818;stroke-width:1.0;" x1="506.1542" x2="499.9716" y1="469.7521" y2="477.6119"/><line style="stroke:#181818;stroke-width:1.0;" x1="506.1542" x2="505.97" y1="469.7521" y2="477.75"/><ellipse cx="506.2923" cy="463.7537" fill="none" rx="4" ry="4" style="stroke:#181818;stroke-width:1.0;"/></g><!--link users to posts_subscribes--><g id="link_users_posts_subscribes"><path codeLine="82" d="M289.9374,149.6822 C277.0174,167.8722 269.84,181.89 263,203 C234.77,290.09 242.76,319.71 263,409 C270.69,442.94 279.0812,462.6609 293.8712,488.8209 " fill="none" id="users-posts_subscribes" style="stroke:#181818;stroke-width:1.0;"/><line style="stroke:#181818;stroke-width:1.0;" x1="288.9926" x2="295.5148" y1="144.1048" y2="148.7374"/><line style="stroke:#181818;stroke-width:1.0;" x1="287.2554" x2="293.7776" y1="146.5506" y2="151.1832"/><line style="stroke:#181818;stroke-width:1.0;" x1="289.9374" x2="294.57" y1="149.6822" y2="143.16"/><line style="stroke:#181818;stroke-width:1.0;" x1="298.7928" x2="307.953" y1="497.5259" y2="501.5371"/><line style="stroke:#181818;stroke-width:1.0;" x1="298.7928" x2="297.507" y1="497.5259" y2="507.4429"/><line style="stroke:#181818;stroke-width:1.0;" x1="298.7928" x2="302.73" y1="497.5259" y2="504.49"/><ellipse cx="295.8398" cy="492.3029" fill="none" rx="4" ry="4" style="stroke:#181818;stroke-width:1.0;"/></g><!--link users to tags_subscribes--><g id="link_users_tags_subscribes"><path codeLine="83" d="M443.8794,137.246 C472.7894,158.276 498.44,178.34 526,203 C547.1,221.88 556.7597,231.3938 574.0497,250.7238 " fill="none" id="users-tags_subscribes" style="stroke:#181818;stroke-width:1.0;"/><line style="stroke:#181818;stroke-width:1.0;" x1="438.2917" x2="442.9977" y1="138.1277" y2="131.6583"/><line style="stroke:#181818;stroke-width:1.0;" x1="440.7177" x2="445.4237" y1="139.8925" y2="133.4231"/><line style="stroke:#181818;stroke-width:1.0;" x1="443.8794" x2="437.41" y1="137.246" y2="132.54"/><line style="stroke:#181818;stroke-width:1.0;" x1="580.7165" x2="590.5221" y1="258.1773" y2="260.1399"/><line style="stroke:#181818;stroke-width:1.0;" x1="580.7165" x2="581.5779" y1="258.1773" y2="268.1401"/><line style="stroke:#181818;stroke-width:1.0;" x1="580.7165" x2="586.05" y1="258.1773" y2="264.14"/><ellipse cx="576.7165" cy="253.7052" fill="none" rx="4" ry="4" style="stroke:#181818;stroke-width:1.0;"/></g><!--link posts to comments--><g id="link_posts_comments"><path codeLine="85" d="M275.6594,400.0175 C254.7094,424.5875 248.9411,431.3451 228.5811,455.2151 " fill="none" id="posts-comments" style="stroke:#181818;stroke-width:1.0;"/><line style="stroke:#181818;stroke-width:1.0;" x1="275.2109" x2="281.2984" y1="394.3784" y2="399.5691"/><line style="stroke:#181818;stroke-width:1.0;" x1="273.2645" x2="279.352" y1="396.6613" y2="401.8519"/><line style="stroke:#181818;stroke-width:1.0;" x1="275.6594" x2="280.85" y1="400.0175" y2="393.93"/><line style="stroke:#181818;stroke-width:1.0;" x1="222.0916" x2="221.465" y1="462.8234" y2="472.8037"/><line style="stroke:#181818;stroke-width:1.0;" x1="222.0916" x2="212.335" y1="462.8234" y2="465.0163"/><line style="stroke:#181818;stroke-width:1.0;" x1="222.0916" x2="216.9" y1="462.8234" y2="468.91"/><ellipse cx="225.9853" cy="458.2584" fill="none" rx="4" ry="4" style="stroke:#181818;stroke-width:1.0;"/></g><!--link posts to votes--><g id="link_posts_votes"><path codeLine="86" d="M422.3933,416.1168 C436.7133,439.3068 437.901,441.2257 451.051,462.5157 " fill="none" id="posts-votes" style="stroke:#181818;stroke-width:1.0;"/><line style="stroke:#181818;stroke-width:1.0;" x1="416.8882" x2="423.695" y1="414.815" y2="410.6118"/><line style="stroke:#181818;stroke-width:1.0;" x1="418.4644" x2="425.2713" y1="417.3676" y2="413.1643"/><line style="stroke:#181818;stroke-width:1.0;" x1="422.3933" x2="418.19" y1="416.1168" y2="409.31"/><line style="stroke:#181818;stroke-width:1.0;" x1="456.306" x2="465.6148" y1="471.0237" y2="474.677"/><line style="stroke:#181818;stroke-width:1.0;" x1="456.306" x2="455.4052" y1="471.0237" y2="480.983"/><line style="stroke:#181818;stroke-width:1.0;" x1="456.306" x2="460.51" y1="471.0237" y2="477.83"/><ellipse cx="453.153" cy="465.9189" fill="none" rx="4" ry="4" style="stroke:#181818;stroke-width:1.0;"/></g><!--link posts to posts_tags--><g id="link_posts_posts_tags"><path codeLine="87" d="M435.6194,361.9773 C499.9494,405.8473 570.4392,453.918 629.9692,494.518 " fill="none" id="posts-posts_tags" style="stroke:#181818;stroke-width:1.0;"/><line style="stroke:#181818;stroke-width:1.0;" x1="430.0611" x2="434.5684" y1="363.0284" y2="356.4189"/><line style="stroke:#181818;stroke-width:1.0;" x1="432.5396" x2="437.0469" y1="364.7186" y2="358.1092"/><line style="stroke:#181818;stroke-width:1.0;" x1="435.6194" x2="429.01" y1="361.9773" y2="357.47"/><line style="stroke:#181818;stroke-width:1.0;" x1="638.2308" x2="648.2207" y1="500.1524" y2="499.7031"/><line style="stroke:#181818;stroke-width:1.0;" x1="638.2308" x2="641.4593" y1="500.1524" y2="509.6169"/><line style="stroke:#181818;stroke-width:1.0;" x1="638.2308" x2="644.84" y1="500.1524" y2="504.66"/><ellipse cx="633.2738" cy="496.7718" fill="none" rx="4" ry="4" style="stroke:#181818;stroke-width:1.0;"/></g><!--link posts to posts_subscribes--><g id="link_posts_posts_subscribes"><path codeLine="88" d="M342.4889,417.2591 C338.6889,450.7791 337.6075,460.2545 334.6375,486.4545 " fill="none" id="posts-posts_subscribes" style="stroke:#181818;stroke-width:1.0;"/><line style="stroke:#181818;stroke-width:1.0;" x1="338.9649" x2="346.914" y1="412.834" y2="413.7351"/><line style="stroke:#181818;stroke-width:1.0;" x1="338.627" x2="346.576" y1="415.8149" y2="416.716"/><line style="stroke:#181818;stroke-width:1.0;" x1="342.4889" x2="343.39" y1="417.2591" y2="409.31"/><line style="stroke:#181818;stroke-width:1.0;" x1="333.5111" x2="338.5718" y1="496.3909" y2="505.0158"/><line style="stroke:#181818;stroke-width:1.0;" x1="333.5111" x2="326.6482" y1="496.3909" y2="503.6642"/><line style="stroke:#181818;stroke-width:1.0;" x1="333.5111" x2="332.61" y1="496.3909" y2="504.34"/><ellipse cx="334.1869" cy="490.4291" fill="none" rx="4" ry="4" style="stroke:#181818;stroke-width:1.0;"/></g><!--link posts to posts--><g id="link_posts_posts"><path codeLine="89" d="M437.0744,264.1619 C456.8944,266.5119 464,279.83 464,306 C464,332.17 466.8248,344.3106 447.0048,346.6606 " fill="none" id="posts-posts" style="stroke:#181818;stroke-width:1.0;"/><line style="stroke:#181818;stroke-width:1.0;" x1="432.6312" x2="433.5731" y1="267.6631" y2="259.7188"/><line style="stroke:#181818;stroke-width:1.0;" x1="435.6103" x2="436.5523" y1="268.0164" y2="260.072"/><line style="stroke:#181818;stroke-width:1.0;" x1="437.0744" x2="429.13" y1="264.1619" y2="263.22"/><line style="stroke:#181818;stroke-width:1.0;" x1="437.0744" x2="429.8365" y1="347.8381" y2="354.7383"/><line style="stroke:#181818;stroke-width:1.0;" x1="437.0744" x2="428.4235" y1="347.8381" y2="342.8217"/><line style="stroke:#181818;stroke-width:1.0;" x1="437.0744" x2="429.13" y1="347.8381" y2="348.78"/><ellipse cx="443.0326" cy="347.1316" fill="none" rx="4" ry="4" style="stroke:#181818;stroke-width:1.0;"/></g><!--link tags to posts_tags--><g id="link_tags_posts_tags"><path codeLine="91" d="M694.8203,133.5472 C699.8903,156.8572 703.49,177.28 706,203 C716.57,311.44 712.0877,422.1754 708.0577,486.3754 " fill="none" id="tags-posts_tags" style="stroke:#181818;stroke-width:1.0;"/><line style="stroke:#181818;stroke-width:1.0;" x1="690.0615" x2="697.8788" y1="130.4888" y2="128.7885"/><line style="stroke:#181818;stroke-width:1.0;" x1="690.6991" x2="698.5164" y1="133.4202" y2="131.7199"/><line style="stroke:#181818;stroke-width:1.0;" x1="694.8203" x2="693.12" y1="133.5472" y2="125.73"/><line style="stroke:#181818;stroke-width:1.0;" x1="707.4312" x2="712.9182" y1="496.3557" y2="504.7159"/><line style="stroke:#181818;stroke-width:1.0;" x1="707.4312" x2="700.9418" y1="496.3557" y2="503.9641"/><line style="stroke:#181818;stroke-width:1.0;" x1="707.4312" x2="706.93" y1="496.3557" y2="504.34"/><ellipse cx="707.8071" cy="490.3675" fill="none" rx="4" ry="4" style="stroke:#181818;stroke-width:1.0;"/></g><!--link tags to tags_subscribes--><g id="link_tags_tags_subscribes"><path codeLine="92" d="M665.952,133.4287 C655.092,174.8687 646.4021,208.0377 636.2521,246.7777 " fill="none" id="tags-tags_subscribes" style="stroke:#181818;stroke-width:1.0;"/><line style="stroke:#181818;stroke-width:1.0;" x1="663.0966" x2="670.8353" y1="128.5453" y2="130.5734"/><line style="stroke:#181818;stroke-width:1.0;" x1="662.3361" x2="670.0748" y1="131.4473" y2="133.4754"/><line style="stroke:#181818;stroke-width:1.0;" x1="665.952" x2="667.98" y1="133.4287" y2="125.69"/><line style="stroke:#181818;stroke-width:1.0;" x1="633.7176" x2="637.4941" y1="256.4512" y2="265.7107"/><line style="stroke:#181818;stroke-width:1.0;" x1="633.7176" x2="625.8859" y1="256.4512" y2="262.6693"/><line style="stroke:#181818;stroke-width:1.0;" x1="633.7176" x2="631.69" y1="256.4512" y2="264.19"/><ellipse cx="635.2383" cy="250.6471" fill="none" rx="4" ry="4" style="stroke:#181818;stroke-width:1.0;"/></g><!--SRC=[hPF9ReCm54Nt_WhMaVW1TYnGXLIHDj1XXmnOYQKmo4DQbFJVQpz8CSO9MPGLx_hw-lZP9esilQxb8XTzHxmpyjJt-XQbMRnDe0YJz2FQeH-4YFPAJfZfZJwpQ9U4pr34oLXStQTM4DFziatZB7wFe4YYfn0AS0igUaZdetT3Ao_m2hgdZG31zmTzGWWc71XIJi8QVCnXgfIq0fbycxAHsE1QXvmmAm-O6How8siSodWqPskjQAjUIKAj2FNKsM3wXn4inQ5b2w8ECuMma773lyZINJA21T6Ye3NX0jSTwBAh5lgqENqeQvkxXQVty2Z5kE-_Es0Wb6rTgzyr2hkT_q5rlpS2xzUWh4lZ1B1kKcx6Ecatod4tWSk2bumMP2K77eGxI4CuSkoLRyOCZ_DoyVtsF53DfUkXpbMuROwv1ibyrC94Q7YCzY8pTLXa9asDT-b6_d8K8JYlPP0fsvY_]--></g></svg>