<svg xmlns="http://www.w3.org/2000/svg" xmlns:xlink="http://www.w3.org/1999/xlink" contentStyleType="text/css" data-diagram-type="CLASS" height="737px" preserveAspectRatio="none" style="width:673px;height:737px;background:#FFFFFF;" version="1.1" viewBox="0 0 673 737" width="673px" zoomAndPan="magnify"><defs/><g><!--class User--><g id="elem_User"><rect codeLine="3" fill="#F1F1F1" height="83.2188" id="User" rx="2.5" ry="2.5" style="stroke:#181818;stroke-width:0.5;" width="105.3721" x="371" y="7"/><ellipse cx="405.7161" cy="23" fill="#ADD1B2" rx="11" ry="11" style="stroke:#181818;stroke-width:1;"/><path d="M404.5754,23.7969 L404.5754,26.2969 L408.9036,26.2969 L408.9036,25.375 Q408.9036,24.7656 409.1379,24.5 Q409.3879,24.2344 409.7629,24.2344 Q410.1379,24.2344 410.3723,24.5 Q410.6067,24.7656 410.6067,25.375 L410.6067,28 L402.6067,28 Q401.9817,28 401.7161,27.7656 Q401.4661,27.5313 401.4661,27.1406 Q401.4661,26.7656 401.7317,26.5313 Q401.9973,26.2969 402.6067,26.2969 L402.8723,26.2969 L402.8723,19.6406 L402.6067,19.6406 Q401.9817,19.6406 401.7161,19.4063 Q401.4661,19.1719 401.4661,18.7813 Q401.4661,18.4063 401.7161,18.1719 Q401.9817,17.9375 402.6067,17.9375 L410.2317,17.9375 L410.2317,20.5313 Q410.2317,21.1406 409.9973,21.4063 Q409.7786,21.6563 409.3879,21.6563 Q409.0129,21.6563 408.7786,21.4063 Q408.5442,21.1406 408.5442,20.5313 L408.5442,19.6406 L404.5754,19.6406 L404.5754,22.0938 L406.0598,22.0938 Q406.0598,21.4375 406.1848,21.25 Q406.4504,20.8438 406.9192,20.8438 Q407.2942,20.8438 407.5286,21.1094 Q407.7629,21.3594 407.7629,21.9688 L407.7629,23.9375 Q407.7629,24.4844 407.6379,24.6719 Q407.3723,25.0625 406.9192,25.0625 Q406.4504,25.0625 406.1848,24.6563 Q406.0598,24.4688 406.0598,23.7969 L404.5754,23.7969 Z " fill="#000000"/><text fill="#000000" font-family="sans-serif" font-size="14" lengthAdjust="spacing" textLength="29.5586" x="424.0974" y="28.7285">User</text><line style="stroke:#181818;stroke-width:0.5;" x1="372" x2="475.3721" y1="39" y2="39"/><ellipse cx="382" cy="53.3047" fill="#000000" rx="3" ry="3" style="stroke:#000000;stroke-width:1;"/><text fill="#000000" font-family="sans-serif" font-size="14" lengthAdjust="spacing" textLength="65.3721" x="391" y="57.5332">id : integer</text><line style="stroke:#181818;stroke-width:1;" x1="372" x2="475.3721" y1="64.6094" y2="64.6094"/><text fill="#000000" font-family="sans-serif" font-size="14" lengthAdjust="spacing" textLength="93.3721" x="377" y="83.1426">name : varchar</text></g><!--class Post--><g id="elem_Post"><rect codeLine="9" fill="#F1F1F1" height="206.4844" id="Post" rx="2.5" ry="2.5" style="stroke:#181818;stroke-width:0.5;" width="152.8477" x="347" y="150"/><ellipse cx="405.167" cy="166" fill="#ADD1B2" rx="11" ry="11" style="stroke:#181818;stroke-width:1;"/><path d="M404.0264,166.7969 L404.0264,169.2969 L408.3545,169.2969 L408.3545,168.375 Q408.3545,167.7656 408.5889,167.5 Q408.8389,167.2344 409.2139,167.2344 Q409.5889,167.2344 409.8232,167.5 Q410.0576,167.7656 410.0576,168.375 L410.0576,171 L402.0576,171 Q401.4326,171 401.167,170.7656 Q400.917,170.5313 400.917,170.1406 Q400.917,169.7656 401.1826,169.5313 Q401.4482,169.2969 402.0576,169.2969 L402.3232,169.2969 L402.3232,162.6406 L402.0576,162.6406 Q401.4326,162.6406 401.167,162.4063 Q400.917,162.1719 400.917,161.7813 Q400.917,161.4063 401.167,161.1719 Q401.4326,160.9375 402.0576,160.9375 L409.6826,160.9375 L409.6826,163.5313 Q409.6826,164.1406 409.4482,164.4063 Q409.2295,164.6563 408.8389,164.6563 Q408.4639,164.6563 408.2295,164.4063 Q407.9951,164.1406 407.9951,163.5313 L407.9951,162.6406 L404.0264,162.6406 L404.0264,165.0938 L405.5107,165.0938 Q405.5107,164.4375 405.6357,164.25 Q405.9014,163.8438 406.3701,163.8438 Q406.7451,163.8438 406.9795,164.1094 Q407.2139,164.3594 407.2139,164.9688 L407.2139,166.9375 Q407.2139,167.4844 407.0889,167.6719 Q406.8232,168.0625 406.3701,168.0625 Q405.9014,168.0625 405.6357,167.6563 Q405.5107,167.4688 405.5107,166.7969 L404.0264,166.7969 Z " fill="#000000"/><text fill="#000000" font-family="sans-serif" font-size="14" lengthAdjust="spacing" textLength="28.0137" x="425.667" y="171.7285">Post</text><line style="stroke:#181818;stroke-width:0.5;" x1="348" x2="498.8477" y1="182" y2="182"/><ellipse cx="358" cy="196.3047" fill="#000000" rx="3" ry="3" style="stroke:#000000;stroke-width:1;"/><text fill="#000000" font-family="sans-serif" font-size="14" lengthAdjust="spacing" textLength="65.3721" x="367" y="200.5332">id : integer</text><line style="stroke:#181818;stroke-width:1;" x1="348" x2="498.8477" y1="207.6094" y2="207.6094"/><text fill="#000000" font-family="sans-serif" font-size="14" lengthAdjust="spacing" textLength="80.1377" x="367" y="226.1426">title : varchar</text><text fill="#000000" font-family="sans-serif" font-size="14" lengthAdjust="spacing" textLength="64.5928" x="367" y="243.752">body : text</text><ellipse cx="358" cy="257.1328" fill="#000000" rx="3" ry="3" style="stroke:#000000;stroke-width:1;"/><text fill="#000000" font-family="sans-serif" font-size="14" lengthAdjust="spacing" textLength="112.8545" x="367" y="261.3613">author_id : integer</text><text fill="#000000" font-family="sans-serif" font-size="14" lengthAdjust="spacing" textLength="112.8545" x="367" y="278.9707">parent_id : integer</text><text fill="#000000" font-family="sans-serif" font-size="14" lengthAdjust="spacing" textLength="118.2891" x="367" y="296.5801">answer_id : integer</text><text fill="#000000" font-family="sans-serif" font-size="14" lengthAdjust="spacing" textLength="122.9375" x="367" y="314.1895">created : timestamp</text><text fill="#000000" font-family="sans-serif" font-size="14" lengthAdjust="spacing" textLength="126.8477" x="367" y="331.7988">updated : timestamp</text><text fill="#000000" font-family="sans-serif" font-size="14" lengthAdjust="spacing" textLength="88.71" x="367" y="349.4082">score : integer</text></g><!--class Comment--><g id="elem_Comment"><rect codeLine="22" fill="#F1F1F1" height="171.2656" id="Comment" rx="2.5" ry="2.5" style="stroke:#181818;stroke-width:0.5;" width="152.8477" x="7" y="416"/><ellipse cx="49.0743" cy="432" fill="#ADD1B2" rx="11" ry="11" style="stroke:#181818;stroke-width:1;"/><path d="M47.9336,432.7969 L47.9336,435.2969 L52.2618,435.2969 L52.2618,434.375 Q52.2618,433.7656 52.4961,433.5 Q52.7461,433.2344 53.1211,433.2344 Q53.4961,433.2344 53.7305,433.5 Q53.9649,433.7656 53.9649,434.375 L53.9649,437 L45.9649,437 Q45.3399,437 45.0743,436.7656 Q44.8243,436.5313 44.8243,436.1406 Q44.8243,435.7656 45.0899,435.5313 Q45.3555,435.2969 45.9649,435.2969 L46.2305,435.2969 L46.2305,428.6406 L45.9649,428.6406 Q45.3399,428.6406 45.0743,428.4063 Q44.8243,428.1719 44.8243,427.7813 Q44.8243,427.4063 45.0743,427.1719 Q45.3399,426.9375 45.9649,426.9375 L53.5899,426.9375 L53.5899,429.5313 Q53.5899,430.1406 53.3555,430.4063 Q53.1368,430.6563 52.7461,430.6563 Q52.3711,430.6563 52.1368,430.4063 Q51.9024,430.1406 51.9024,429.5313 L51.9024,428.6406 L47.9336,428.6406 L47.9336,431.0938 L49.418,431.0938 Q49.418,430.4375 49.543,430.25 Q49.8086,429.8438 50.2774,429.8438 Q50.6524,429.8438 50.8868,430.1094 Q51.1211,430.3594 51.1211,430.9688 L51.1211,432.9375 Q51.1211,433.4844 50.9961,433.6719 Q50.7305,434.0625 50.2774,434.0625 Q49.8086,434.0625 49.543,433.6563 Q49.418,433.4688 49.418,432.7969 L47.9336,432.7969 Z " fill="#000000"/><text fill="#000000" font-family="sans-serif" font-size="14" lengthAdjust="spacing" textLength="60.6826" x="69.0908" y="437.7285">Comment</text><line style="stroke:#181818;stroke-width:0.5;" x1="8" x2="158.8477" y1="448" y2="448"/><ellipse cx="18" cy="462.3047" fill="#000000" rx="3" ry="3" style="stroke:#000000;stroke-width:1;"/><text fill="#000000" font-family="sans-serif" font-size="14" lengthAdjust="spacing" textLength="65.3721" x="27" y="466.5332">id : integer</text><line style="stroke:#181818;stroke-width:1;" x1="8" x2="158.8477" y1="473.6094" y2="473.6094"/><text fill="#000000" font-family="sans-serif" font-size="14" lengthAdjust="spacing" textLength="64.5928" x="27" y="492.1426">body : text</text><ellipse cx="18" cy="505.5234" fill="#000000" rx="3" ry="3" style="stroke:#000000;stroke-width:1;"/><text fill="#000000" font-family="sans-serif" font-size="14" lengthAdjust="spacing" textLength="112.8545" x="27" y="509.752">author_id : integer</text><text fill="#000000" font-family="sans-serif" font-size="14" lengthAdjust="spacing" textLength="99.6201" x="27" y="527.3613">post_id : integer</text><text fill="#000000" font-family="sans-serif" font-size="14" lengthAdjust="spacing" textLength="122.9375" x="27" y="544.9707">created : timestamp</text><text fill="#000000" font-family="sans-serif" font-size="14" lengthAdjust="spacing" textLength="126.8477" x="27" y="562.5801">updated : timestamp</text><text fill="#000000" font-family="sans-serif" font-size="14" lengthAdjust="spacing" textLength="88.71" x="27" y="580.1895">score : integer</text></g><!--class Vote--><g id="elem_Vote"><rect codeLine="33" fill="#F1F1F1" height="118.4375" id="Vote" rx="2.5" ry="2.5" style="stroke:#181818;stroke-width:0.5;" width="148.9375" x="195" y="442.5"/><ellipse cx="250.8188" cy="458.5" fill="#ADD1B2" rx="11" ry="11" style="stroke:#181818;stroke-width:1;"/><path d="M249.6782,459.2969 L249.6782,461.7969 L254.0063,461.7969 L254.0063,460.875 Q254.0063,460.2656 254.2407,460 Q254.4907,459.7344 254.8657,459.7344 Q255.2407,459.7344 255.4751,460 Q255.7095,460.2656 255.7095,460.875 L255.7095,463.5 L247.7095,463.5 Q247.0845,463.5 246.8188,463.2656 Q246.5688,463.0313 246.5688,462.6406 Q246.5688,462.2656 246.8345,462.0313 Q247.1001,461.7969 247.7095,461.7969 L247.9751,461.7969 L247.9751,455.1406 L247.7095,455.1406 Q247.0845,455.1406 246.8188,454.9063 Q246.5688,454.6719 246.5688,454.2813 Q246.5688,453.9063 246.8188,453.6719 Q247.0845,453.4375 247.7095,453.4375 L255.3345,453.4375 L255.3345,456.0313 Q255.3345,456.6406 255.1001,456.9063 Q254.8813,457.1563 254.4907,457.1563 Q254.1157,457.1563 253.8813,456.9063 Q253.647,456.6406 253.647,456.0313 L253.647,455.1406 L249.6782,455.1406 L249.6782,457.5938 L251.1626,457.5938 Q251.1626,456.9375 251.2876,456.75 Q251.5532,456.3438 252.022,456.3438 Q252.397,456.3438 252.6313,456.6094 Q252.8657,456.8594 252.8657,457.4688 L252.8657,459.4375 Q252.8657,459.9844 252.7407,460.1719 Q252.4751,460.5625 252.022,460.5625 Q251.5532,460.5625 251.2876,460.1563 Q251.1626,459.9688 251.1626,459.2969 L249.6782,459.2969 Z " fill="#000000"/><text fill="#000000" font-family="sans-serif" font-size="14" lengthAdjust="spacing" textLength="28.7998" x="271.3188" y="464.2285">Vote</text><line style="stroke:#181818;stroke-width:0.5;" x1="196" x2="342.9375" y1="474.5" y2="474.5"/><ellipse cx="206" cy="488.8047" fill="#000000" rx="3" ry="3" style="stroke:#000000;stroke-width:1;"/><text fill="#000000" font-family="sans-serif" font-size="14" lengthAdjust="spacing" textLength="65.3721" x="215" y="493.0332">id : integer</text><line style="stroke:#181818;stroke-width:1;" x1="196" x2="342.9375" y1="500.1094" y2="500.1094"/><ellipse cx="206" cy="514.4141" fill="#000000" rx="3" ry="3" style="stroke:#000000;stroke-width:1;"/><text fill="#000000" font-family="sans-serif" font-size="14" lengthAdjust="spacing" textLength="112.8545" x="215" y="518.6426">author_id : integer</text><ellipse cx="206" cy="532.0234" fill="#000000" rx="3" ry="3" style="stroke:#000000;stroke-width:1;"/><text fill="#000000" font-family="sans-serif" font-size="14" lengthAdjust="spacing" textLength="99.6201" x="215" y="536.252">post_id : integer</text><text fill="#000000" font-family="sans-serif" font-size="14" lengthAdjust="spacing" textLength="122.9375" x="215" y="553.8613">created : timestamp</text></g><!--class Tag--><g id="elem_Tag"><rect codeLine="41" fill="#F1F1F1" height="100.8281" id="Tag" rx="2.5" ry="2.5" style="stroke:#181818;stroke-width:0.5;" width="125.6201" x="379.5" y="451"/><ellipse cx="425.998" cy="467" fill="#ADD1B2" rx="11" ry="11" style="stroke:#181818;stroke-width:1;"/><path d="M424.8574,467.7969 L424.8574,470.2969 L429.1855,470.2969 L429.1855,469.375 Q429.1855,468.7656 429.4199,468.5 Q429.6699,468.2344 430.0449,468.2344 Q430.4199,468.2344 430.6543,468.5 Q430.8887,468.7656 430.8887,469.375 L430.8887,472 L422.8887,472 Q422.2637,472 421.998,471.7656 Q421.748,471.5313 421.748,471.1406 Q421.748,470.7656 422.0137,470.5313 Q422.2793,470.2969 422.8887,470.2969 L423.1543,470.2969 L423.1543,463.6406 L422.8887,463.6406 Q422.2637,463.6406 421.998,463.4063 Q421.748,463.1719 421.748,462.7813 Q421.748,462.4063 421.998,462.1719 Q422.2637,461.9375 422.8887,461.9375 L430.5137,461.9375 L430.5137,464.5313 Q430.5137,465.1406 430.2793,465.4063 Q430.0605,465.6563 429.6699,465.6563 Q429.2949,465.6563 429.0605,465.4063 Q428.8262,465.1406 428.8262,464.5313 L428.8262,463.6406 L424.8574,463.6406 L424.8574,466.0938 L426.3418,466.0938 Q426.3418,465.4375 426.4668,465.25 Q426.7324,464.8438 427.2012,464.8438 Q427.5762,464.8438 427.8105,465.1094 Q428.0449,465.3594 428.0449,465.9688 L428.0449,467.9375 Q428.0449,468.4844 427.9199,468.6719 Q427.6543,469.0625 427.2012,469.0625 Q426.7324,469.0625 426.4668,468.6563 Q426.3418,468.4688 426.3418,467.7969 L424.8574,467.7969 Z " fill="#000000"/><text fill="#000000" font-family="sans-serif" font-size="14" lengthAdjust="spacing" textLength="24.124" x="446.498" y="472.7285">Tag</text><line style="stroke:#181818;stroke-width:0.5;" x1="380.5" x2="504.1201" y1="483" y2="483"/><ellipse cx="390.5" cy="497.3047" fill="#000000" rx="3" ry="3" style="stroke:#000000;stroke-width:1;"/><text fill="#000000" font-family="sans-serif" font-size="14" lengthAdjust="spacing" textLength="65.3721" x="399.5" y="501.5332">id : integer</text><line style="stroke:#181818;stroke-width:1;" x1="380.5" x2="504.1201" y1="508.6094" y2="508.6094"/><text fill="#000000" font-family="sans-serif" font-size="14" lengthAdjust="spacing" textLength="93.3721" x="399.5" y="527.1426">name : varchar</text><ellipse cx="390.5" cy="540.5234" fill="#000000" rx="3" ry="3" style="stroke:#000000;stroke-width:1;"/><text fill="#000000" font-family="sans-serif" font-size="14" lengthAdjust="spacing" textLength="99.6201" x="399.5" y="544.752">post_id : integer</text></g><!--class PostSubscribe--><g id="elem_PostSubscribe"><rect codeLine="48" fill="#F1F1F1" height="83.2188" id="PostSubscribe" rx="2.5" ry="2.5" style="stroke:#181818;stroke-width:0.5;" width="126.3926" x="540.5" y="460"/><ellipse cx="557.3558" cy="476" fill="#ADD1B2" rx="11" ry="11" style="stroke:#181818;stroke-width:1;"/><path d="M556.2152,476.7969 L556.2152,479.2969 L560.5433,479.2969 L560.5433,478.375 Q560.5433,477.7656 560.7777,477.5 Q561.0277,477.2344 561.4027,477.2344 Q561.7777,477.2344 562.0121,477.5 Q562.2464,477.7656 562.2464,478.375 L562.2464,481 L554.2464,481 Q553.6214,481 553.3558,480.7656 Q553.1058,480.5313 553.1058,480.1406 Q553.1058,479.7656 553.3714,479.5313 Q553.6371,479.2969 554.2464,479.2969 L554.5121,479.2969 L554.5121,472.6406 L554.2464,472.6406 Q553.6214,472.6406 553.3558,472.4063 Q553.1058,472.1719 553.1058,471.7813 Q553.1058,471.4063 553.3558,471.1719 Q553.6214,470.9375 554.2464,470.9375 L561.8714,470.9375 L561.8714,473.5313 Q561.8714,474.1406 561.6371,474.4063 Q561.4183,474.6563 561.0277,474.6563 Q560.6527,474.6563 560.4183,474.4063 Q560.1839,474.1406 560.1839,473.5313 L560.1839,472.6406 L556.2152,472.6406 L556.2152,475.0938 L557.6996,475.0938 Q557.6996,474.4375 557.8246,474.25 Q558.0902,473.8438 558.5589,473.8438 Q558.9339,473.8438 559.1683,474.1094 Q559.4027,474.3594 559.4027,474.9688 L559.4027,476.9375 Q559.4027,477.4844 559.2777,477.6719 Q559.0121,478.0625 558.5589,478.0625 Q558.0902,478.0625 557.8246,477.6563 Q557.6996,477.4688 557.6996,476.7969 L556.2152,476.7969 Z " fill="#000000"/><text fill="#000000" font-family="sans-serif" font-size="14" lengthAdjust="spacing" textLength="90.2686" x="571.7682" y="481.7285">PostSubscribe</text><line style="stroke:#181818;stroke-width:0.5;" x1="541.5" x2="665.8926" y1="492" y2="492"/><ellipse cx="551.5" cy="506.3047" fill="#000000" rx="3" ry="3" style="stroke:#000000;stroke-width:1;"/><text fill="#000000" font-family="sans-serif" font-size="14" lengthAdjust="spacing" textLength="99.6201" x="560.5" y="510.5332">post_id : integer</text><ellipse cx="551.5" cy="523.9141" fill="#000000" rx="3" ry="3" style="stroke:#000000;stroke-width:1;"/><text fill="#000000" font-family="sans-serif" font-size="14" lengthAdjust="spacing" textLength="100.3926" x="560.5" y="528.1426">user_id : integer</text><line style="stroke:#181818;stroke-width:0.5;" x1="541.5" x2="665.8926" y1="535.2188" y2="535.2188"/></g><!--class TagSubscribe--><g id="elem_TagSubscribe"><rect codeLine="53" fill="#F1F1F1" height="83.2188" id="TagSubscribe" rx="2.5" ry="2.5" style="stroke:#181818;stroke-width:0.5;" width="126.3926" x="517.5" y="647"/><ellipse cx="536.1062" cy="663" fill="#ADD1B2" rx="11" ry="11" style="stroke:#181818;stroke-width:1;"/><path d="M534.9655,663.7969 L534.9655,666.2969 L539.2937,666.2969 L539.2937,665.375 Q539.2937,664.7656 539.528,664.5 Q539.778,664.2344 540.153,664.2344 Q540.528,664.2344 540.7624,664.5 Q540.9968,664.7656 540.9968,665.375 L540.9968,668 L532.9968,668 Q532.3718,668 532.1062,667.7656 Q531.8562,667.5313 531.8562,667.1406 Q531.8562,666.7656 532.1218,666.5313 Q532.3874,666.2969 532.9968,666.2969 L533.2624,666.2969 L533.2624,659.6406 L532.9968,659.6406 Q532.3718,659.6406 532.1062,659.4063 Q531.8562,659.1719 531.8562,658.7813 Q531.8562,658.4063 532.1062,658.1719 Q532.3718,657.9375 532.9968,657.9375 L540.6218,657.9375 L540.6218,660.5313 Q540.6218,661.1406 540.3874,661.4063 Q540.1687,661.6563 539.778,661.6563 Q539.403,661.6563 539.1687,661.4063 Q538.9343,661.1406 538.9343,660.5313 L538.9343,659.6406 L534.9655,659.6406 L534.9655,662.0938 L536.4499,662.0938 Q536.4499,661.4375 536.5749,661.25 Q536.8405,660.8438 537.3093,660.8438 Q537.6843,660.8438 537.9187,661.1094 Q538.153,661.3594 538.153,661.9688 L538.153,663.9375 Q538.153,664.4844 538.028,664.6719 Q537.7624,665.0625 537.3093,665.0625 Q536.8405,665.0625 536.5749,664.6563 Q536.4499,664.4688 536.4499,663.7969 L534.9655,663.7969 Z " fill="#000000"/><text fill="#000000" font-family="sans-serif" font-size="14" lengthAdjust="spacing" textLength="86.3789" x="550.9075" y="668.7285">TagSubscribe</text><line style="stroke:#181818;stroke-width:0.5;" x1="518.5" x2="642.8926" y1="679" y2="679"/><ellipse cx="528.5" cy="693.3047" fill="#000000" rx="3" ry="3" style="stroke:#000000;stroke-width:1;"/><text fill="#000000" font-family="sans-serif" font-size="14" lengthAdjust="spacing" textLength="92.6201" x="537.5" y="697.5332">tag_id : integer</text><ellipse cx="528.5" cy="710.9141" fill="#000000" rx="3" ry="3" style="stroke:#000000;stroke-width:1;"/><text fill="#000000" font-family="sans-serif" font-size="14" lengthAdjust="spacing" textLength="100.3926" x="537.5" y="715.1426">user_id : integer</text><line style="stroke:#181818;stroke-width:0.5;" x1="518.5" x2="642.8926" y1="722.2188" y2="722.2188"/></g><!--link User to Post--><g id="link_User_Post"><path codeLine="58" d="M423.5,98.38 C423.5,115.79 423.5,110.84 423.5,131.93 " fill="none" id="User-Post" style="stroke:#181818;stroke-width:1;"/><line style="stroke:#181818;stroke-width:1;" x1="419.5" x2="427.5" y1="94.38" y2="94.38"/><line style="stroke:#181818;stroke-width:1;" x1="419.5" x2="427.5" y1="97.38" y2="97.38"/><line style="stroke:#181818;stroke-width:1;" x1="423.5" x2="423.5" y1="98.38" y2="90.38"/><line style="stroke:#181818;stroke-width:1;" x1="423.5" x2="429.5" y1="141.93" y2="149.93"/><line style="stroke:#181818;stroke-width:1;" x1="423.5" x2="417.5" y1="141.93" y2="149.93"/><line style="stroke:#181818;stroke-width:1;" x1="423.5" x2="423.5" y1="141.93" y2="149.93"/><ellipse cx="423.5" cy="135.93" fill="none" rx="4" ry="4" style="stroke:#181818;stroke-width:1;"/></g><!--link User to Comment--><g id="link_User_Comment"><path codeLine="59" d="M362.75,35 C267.25,35 83.5,35 83.5,35 C83.5,35 83.5,263.26 83.5,397.94 " fill="none" id="User-Comment" style="stroke:#181818;stroke-width:1;"/><line style="stroke:#181818;stroke-width:1;" x1="366.75" x2="366.75" y1="31" y2="39"/><line style="stroke:#181818;stroke-width:1;" x1="363.75" x2="363.75" y1="31" y2="39"/><line style="stroke:#181818;stroke-width:1;" x1="362.75" x2="370.75" y1="35" y2="35"/><line style="stroke:#181818;stroke-width:1;" x1="83.5" x2="89.5" y1="407.94" y2="415.94"/><line style="stroke:#181818;stroke-width:1;" x1="83.5" x2="77.5" y1="407.94" y2="415.94"/><line style="stroke:#181818;stroke-width:1;" x1="83.5" x2="83.5" y1="407.94" y2="415.94"/><ellipse cx="83.5" cy="401.94" fill="none" rx="4" ry="4" style="stroke:#181818;stroke-width:1;"/></g><!--link User to Vote--><g id="link_User_Vote"><path codeLine="60" d="M362.93,63 C318.32,63 269.5,63 269.5,63 C269.5,63 269.5,304.67 269.5,424.36 " fill="none" id="User-Vote" style="stroke:#181818;stroke-width:1;"/><line style="stroke:#181818;stroke-width:1;" x1="366.93" x2="366.93" y1="59" y2="67"/><line style="stroke:#181818;stroke-width:1;" x1="363.93" x2="363.93" y1="59" y2="67"/><line style="stroke:#181818;stroke-width:1;" x1="362.93" x2="370.93" y1="63" y2="63"/><line style="stroke:#181818;stroke-width:1;" x1="269.5" x2="275.5" y1="434.36" y2="442.36"/><line style="stroke:#181818;stroke-width:1;" x1="269.5" x2="263.5" y1="434.36" y2="442.36"/><line style="stroke:#181818;stroke-width:1;" x1="269.5" x2="269.5" y1="434.36" y2="442.36"/><ellipse cx="269.5" cy="428.36" fill="none" rx="4" ry="4" style="stroke:#181818;stroke-width:1;"/></g><!--link Post to Comment--><g id="link_Post_Comment"><path codeLine="62" d="M357.83,364.22 C357.83,403.05 357.83,430 357.83,430 C357.83,430 259.44,430 178.28,430 " fill="none" id="Post-Comment" style="stroke:#181818;stroke-width:1;"/><line style="stroke:#181818;stroke-width:1;" x1="353.83" x2="361.83" y1="360.22" y2="360.22"/><line style="stroke:#181818;stroke-width:1;" x1="353.83" x2="361.83" y1="363.22" y2="363.22"/><line style="stroke:#181818;stroke-width:1;" x1="357.83" x2="357.83" y1="364.22" y2="356.22"/><line style="stroke:#181818;stroke-width:1;" x1="168.28" x2="160.28" y1="430" y2="436"/><line style="stroke:#181818;stroke-width:1;" x1="168.28" x2="160.28" y1="430" y2="424"/><line style="stroke:#181818;stroke-width:1;" x1="168.28" x2="160.28" y1="430" y2="430"/><ellipse cx="174.28" cy="430" fill="none" rx="4" ry="4" style="stroke:#181818;stroke-width:1;"/></g><!--link Post to Vote--><g id="link_Post_Vote"><path codeLine="63" d="M368.67,364.25 C368.67,410.58 368.67,447 368.67,447 C368.67,447 376.24,447 362.15,447 " fill="none" id="Post-Vote" style="stroke:#181818;stroke-width:1;"/><line style="stroke:#181818;stroke-width:1;" x1="364.67" x2="372.67" y1="360.25" y2="360.25"/><line style="stroke:#181818;stroke-width:1;" x1="364.67" x2="372.67" y1="363.25" y2="363.25"/><line style="stroke:#181818;stroke-width:1;" x1="368.67" x2="368.67" y1="364.25" y2="356.25"/><line style="stroke:#181818;stroke-width:1;" x1="352.15" x2="344.15" y1="447" y2="453"/><line style="stroke:#181818;stroke-width:1;" x1="352.15" x2="344.15" y1="447" y2="441"/><line style="stroke:#181818;stroke-width:1;" x1="352.15" x2="344.15" y1="447" y2="447"/><ellipse cx="358.15" cy="447" fill="none" rx="4" ry="4" style="stroke:#181818;stroke-width:1;"/></g><!--link Post to Tag--><g id="link_Post_Tag"><path codeLine="64" d="M409.62,364.23 C409.62,396.9 409.62,408.57 409.62,435.84 " fill="none" id="Post-Tag" style="stroke:#181818;stroke-width:1;"/><line style="stroke:#181818;stroke-width:1;" x1="405.62" x2="413.62" y1="360.23" y2="360.23"/><line style="stroke:#181818;stroke-width:1;" x1="405.62" x2="413.62" y1="363.23" y2="363.23"/><line style="stroke:#181818;stroke-width:1;" x1="409.62" x2="409.62" y1="364.23" y2="356.23"/><line style="stroke:#181818;stroke-width:1;" x1="409.62" x2="409.62" y1="439.84" y2="450.84"/><ellipse cx="409.62" cy="439.84" fill="none" rx="4" ry="4" style="stroke:#181818;stroke-width:1;"/><line style="stroke:#181818;stroke-width:1;" x1="413.62" x2="405.62" y1="446.84" y2="446.84"/></g><!--link Post to PostSubscribe--><g id="link_Post_PostSubscribe"><path codeLine="66" d="M508.21,253 C548.86,253 582.5,253 582.5,253 C582.5,253 582.5,371.16 582.5,441.91 " fill="none" id="Post-PostSubscribe" style="stroke:#181818;stroke-width:1;"/><line style="stroke:#181818;stroke-width:1;" x1="504.21" x2="504.21" y1="257" y2="249"/><line style="stroke:#181818;stroke-width:1;" x1="507.21" x2="507.21" y1="257" y2="249"/><line style="stroke:#181818;stroke-width:1;" x1="508.21" x2="500.21" y1="253" y2="253"/><line style="stroke:#181818;stroke-width:1;" x1="582.5" x2="588.5" y1="451.91" y2="459.91"/><line style="stroke:#181818;stroke-width:1;" x1="582.5" x2="576.5" y1="451.91" y2="459.91"/><line style="stroke:#181818;stroke-width:1;" x1="582.5" x2="582.5" y1="451.91" y2="459.91"/><ellipse cx="582.5" cy="445.91" fill="none" rx="4" ry="4" style="stroke:#181818;stroke-width:1;"/></g><!--link User to PostSubscribe--><g id="link_User_PostSubscribe"><path codeLine="67" d="M484.05,35 C543.6,35 624.5,35 624.5,35 C624.5,35 624.5,327.19 624.5,441.69 " fill="none" id="User-PostSubscribe" style="stroke:#181818;stroke-width:1;"/><line style="stroke:#181818;stroke-width:1;" x1="480.05" x2="480.05" y1="39" y2="31"/><line style="stroke:#181818;stroke-width:1;" x1="483.05" x2="483.05" y1="39" y2="31"/><line style="stroke:#181818;stroke-width:1;" x1="484.05" x2="476.05" y1="35" y2="35"/><line style="stroke:#181818;stroke-width:1;" x1="624.5" x2="630.5" y1="451.69" y2="459.69"/><line style="stroke:#181818;stroke-width:1;" x1="624.5" x2="618.5" y1="451.69" y2="459.69"/><line style="stroke:#181818;stroke-width:1;" x1="624.5" x2="624.5" y1="451.69" y2="459.69"/><ellipse cx="624.5" cy="445.69" fill="none" rx="4" ry="4" style="stroke:#181818;stroke-width:1;"/></g><!--link Tag to TagSubscribe--><g id="link_Tag_TagSubscribe"><path codeLine="69" d="M513.58,548 C524.89,548 525.17,548 525.17,548 C525.17,548 525.17,587.31 525.17,628.73 " fill="none" id="Tag-TagSubscribe" style="stroke:#181818;stroke-width:1;"/><line style="stroke:#181818;stroke-width:1;" x1="509.58" x2="509.58" y1="552" y2="544"/><line style="stroke:#181818;stroke-width:1;" x1="512.58" x2="512.58" y1="552" y2="544"/><line style="stroke:#181818;stroke-width:1;" x1="513.58" x2="505.58" y1="548" y2="548"/><line style="stroke:#181818;stroke-width:1;" x1="525.17" x2="531.17" y1="638.73" y2="646.73"/><line style="stroke:#181818;stroke-width:1;" x1="525.17" x2="519.17" y1="638.73" y2="646.73"/><line style="stroke:#181818;stroke-width:1;" x1="525.17" x2="525.17" y1="638.73" y2="646.73"/><ellipse cx="525.17" cy="632.73" fill="none" rx="4" ry="4" style="stroke:#181818;stroke-width:1;"/></g><!--link User to TagSubscribe--><g id="link_User_TagSubscribe"><path codeLine="70" d="M484.25,63 C512.2,63 532.83,63 532.83,63 C532.83,63 532.83,489.27 532.83,628.97 " fill="none" id="User-TagSubscribe" style="stroke:#181818;stroke-width:1;"/><line style="stroke:#181818;stroke-width:1;" x1="480.25" x2="480.25" y1="67" y2="59"/><line style="stroke:#181818;stroke-width:1;" x1="483.25" x2="483.25" y1="67" y2="59"/><line style="stroke:#181818;stroke-width:1;" x1="484.25" x2="476.25" y1="63" y2="63"/><line style="stroke:#181818;stroke-width:1;" x1="532.83" x2="538.83" y1="638.97" y2="646.97"/><line style="stroke:#181818;stroke-width:1;" x1="532.83" x2="526.83" y1="638.97" y2="646.97"/><line style="stroke:#181818;stroke-width:1;" x1="532.83" x2="532.83" y1="638.97" y2="646.97"/><ellipse cx="532.83" cy="632.97" fill="none" rx="4" ry="4" style="stroke:#181818;stroke-width:1;"/></g><!--link Post to Post--><g id="link_Post_Post"><path codeLine="72" d="M492,131.76 C492,119.93 492,130 492,130 C492,130 509.5,130 509.5,130 C509.5,130 509.5,376 509.5,376 C509.5,376 469.88,376 469.88,376 C469.88,376 469.88,376.07 469.88,364.24 " fill="none" id="Post-Post" style="stroke:#181818;stroke-width:1;"/><line style="stroke:#181818;stroke-width:1;" x1="492" x2="498" y1="141.76" y2="149.76"/><line style="stroke:#181818;stroke-width:1;" x1="492" x2="486" y1="141.76" y2="149.76"/><line style="stroke:#181818;stroke-width:1;" x1="492" x2="492" y1="141.76" y2="149.76"/><ellipse cx="492" cy="135.76" fill="none" rx="4" ry="4" style="stroke:#181818;stroke-width:1;"/><line style="stroke:#181818;stroke-width:1;" x1="465.88" x2="473.88" y1="360.24" y2="360.24"/><line style="stroke:#181818;stroke-width:1;" x1="465.88" x2="473.88" y1="363.24" y2="363.24"/><line style="stroke:#181818;stroke-width:1;" x1="469.88" x2="469.88" y1="364.24" y2="356.24"/></g><!--link Post to Post--><g id="link_Post_Post"><path codeLine="73" d="M484,131.83 C484,109.28 484,110 484,110 C484,110 513.5,110 513.5,110 C513.5,110 513.5,396 513.5,396 C513.5,396 439.75,396 439.75,396 C439.75,396 439.75,386.72 439.75,364.17 " fill="none" id="Post-Post-1" style="stroke:#181818;stroke-width:1;"/><line style="stroke:#181818;stroke-width:1;" x1="484" x2="490" y1="141.83" y2="149.83"/><line style="stroke:#181818;stroke-width:1;" x1="484" x2="478" y1="141.83" y2="149.83"/><line style="stroke:#181818;stroke-width:1;" x1="484" x2="484" y1="141.83" y2="149.83"/><ellipse cx="484" cy="135.83" fill="none" rx="4" ry="4" style="stroke:#181818;stroke-width:1;"/><line style="stroke:#181818;stroke-width:1;" x1="435.75" x2="443.75" y1="360.17" y2="360.17"/><line style="stroke:#181818;stroke-width:1;" x1="435.75" x2="443.75" y1="363.17" y2="363.17"/><line style="stroke:#181818;stroke-width:1;" x1="439.75" x2="439.75" y1="364.17" y2="356.17"/></g><!--SRC=[jPB1ReCm38RlUGgVaV82k-u59ctTTJ9WqQXDWXAp3fM- -mpj1W66kEo2q6V_zc_7yMHSZG4jd8qZRci27_ZebIB7XbiuH0fmLG0Pc1AUm3YcYe80hUNZq9BGJmp54OEw_UfUVEGDdUISfqA0t9Uj0AOl7bJOY8tmCHEBLsamf-ZYXHQvHI1awXaRIv7HraARkboXiV219kfna6TlhVnkpBBJkIpaVno-UwODUtyPodPR6bkzORN_6DPRf2VoskIn22R_6M3DKWPDdBzkOcbUXB7QMMEuxgxJsb_l5vkGnzCdh5-sKaFkB6lAXgmHTBtBL9KCl_0nHbI_yaTaEceYIGBtDZUlTTSDnHRW6m00]--></g></svg>