<svg xmlns="http://www.w3.org/2000/svg" xmlns:xlink="http://www.w3.org/1999/xlink" contentStyleType="text/css" data-diagram-type="CLASS" height="773px" preserveAspectRatio="none" style="width:684px;height:773px;background:#FFFFFF;" version="1.1" viewBox="0 0 684 773" width="684px" zoomAndPan="magnify"><defs/><g><!--class User--><g id="elem_User"><rect codeLine="2" fill="#F1F1F1" height="83.2188" id="User" rx="2.5" ry="2.5" style="stroke:#181818;stroke-width:0.5;" width="105.3721" x="269.86" y="7"/><ellipse cx="304.5761" cy="23" fill="#ADD1B2" rx="11" ry="11" style="stroke:#181818;stroke-width:1;"/><path d="M303.4354,23.7969 L303.4354,26.2969 L307.7636,26.2969 L307.7636,25.375 Q307.7636,24.7656 307.9979,24.5 Q308.2479,24.2344 308.6229,24.2344 Q308.9979,24.2344 309.2323,24.5 Q309.4667,24.7656 309.4667,25.375 L309.4667,28 L301.4667,28 Q300.8417,28 300.5761,27.7656 Q300.3261,27.5313 300.3261,27.1406 Q300.3261,26.7656 300.5917,26.5313 Q300.8573,26.2969 301.4667,26.2969 L301.7323,26.2969 L301.7323,19.6406 L301.4667,19.6406 Q300.8417,19.6406 300.5761,19.4063 Q300.3261,19.1719 300.3261,18.7813 Q300.3261,18.4063 300.5761,18.1719 Q300.8417,17.9375 301.4667,17.9375 L309.0917,17.9375 L309.0917,20.5313 Q309.0917,21.1406 308.8573,21.4063 Q308.6386,21.6563 308.2479,21.6563 Q307.8729,21.6563 307.6386,21.4063 Q307.4042,21.1406 307.4042,20.5313 L307.4042,19.6406 L303.4354,19.6406 L303.4354,22.0938 L304.9198,22.0938 Q304.9198,21.4375 305.0448,21.25 Q305.3104,20.8438 305.7792,20.8438 Q306.1542,20.8438 306.3886,21.1094 Q306.6229,21.3594 306.6229,21.9688 L306.6229,23.9375 Q306.6229,24.4844 306.4979,24.6719 Q306.2323,25.0625 305.7792,25.0625 Q305.3104,25.0625 305.0448,24.6563 Q304.9198,24.4688 304.9198,23.7969 L303.4354,23.7969 Z " fill="#000000"/><text fill="#000000" font-family="sans-serif" font-size="14" lengthAdjust="spacing" textLength="29.5586" x="322.9574" y="28.7285">User</text><line style="stroke:#181818;stroke-width:0.5;" x1="270.86" x2="374.2321" y1="39" y2="39"/><text fill="#000000" font-family="sans-serif" font-size="14" lengthAdjust="spacing" textLength="65.3721" x="275.86" y="57.5332">id : integer</text><line style="stroke:#181818;stroke-width:1;" x1="270.86" x2="374.2321" y1="64.6094" y2="64.6094"/><text fill="#000000" font-family="sans-serif" font-size="14" lengthAdjust="spacing" textLength="93.3721" x="275.86" y="83.1426">name : varchar</text></g><!--class Post--><g id="elem_Post"><rect codeLine="8" fill="#F1F1F1" height="206.4844" id="Post" rx="2.5" ry="2.5" style="stroke:#181818;stroke-width:0.5;" width="271.834" x="186.36" y="150"/><ellipse cx="304.0202" cy="166" fill="#ADD1B2" rx="11" ry="11" style="stroke:#181818;stroke-width:1;"/><path d="M302.8795,166.7969 L302.8795,169.2969 L307.2077,169.2969 L307.2077,168.375 Q307.2077,167.7656 307.442,167.5 Q307.692,167.2344 308.067,167.2344 Q308.442,167.2344 308.6764,167.5 Q308.9108,167.7656 308.9108,168.375 L308.9108,171 L300.9108,171 Q300.2858,171 300.0202,170.7656 Q299.7702,170.5313 299.7702,170.1406 Q299.7702,169.7656 300.0358,169.5313 Q300.3014,169.2969 300.9108,169.2969 L301.1764,169.2969 L301.1764,162.6406 L300.9108,162.6406 Q300.2858,162.6406 300.0202,162.4063 Q299.7702,162.1719 299.7702,161.7813 Q299.7702,161.4063 300.0202,161.1719 Q300.2858,160.9375 300.9108,160.9375 L308.5358,160.9375 L308.5358,163.5313 Q308.5358,164.1406 308.3014,164.4063 Q308.0827,164.6563 307.692,164.6563 Q307.317,164.6563 307.0827,164.4063 Q306.8483,164.1406 306.8483,163.5313 L306.8483,162.6406 L302.8795,162.6406 L302.8795,165.0938 L304.3639,165.0938 Q304.3639,164.4375 304.4889,164.25 Q304.7545,163.8438 305.2233,163.8438 Q305.5983,163.8438 305.8327,164.1094 Q306.067,164.3594 306.067,164.9688 L306.067,166.9375 Q306.067,167.4844 305.942,167.6719 Q305.6764,168.0625 305.2233,168.0625 Q304.7545,168.0625 304.4889,167.6563 Q304.3639,167.4688 304.3639,166.7969 L302.8795,166.7969 Z " fill="#000000"/><text fill="#000000" font-family="sans-serif" font-size="14" lengthAdjust="spacing" textLength="28.0137" x="324.5202" y="171.7285">Post</text><line style="stroke:#181818;stroke-width:0.5;" x1="187.36" x2="457.194" y1="182" y2="182"/><text fill="#000000" font-family="sans-serif" font-size="14" lengthAdjust="spacing" textLength="65.3721" x="192.36" y="200.5332">id : integer</text><line style="stroke:#181818;stroke-width:1;" x1="187.36" x2="457.194" y1="207.6094" y2="207.6094"/><text fill="#000000" font-family="sans-serif" font-size="14" lengthAdjust="spacing" textLength="80.1377" x="192.36" y="226.1426">title : varchar</text><text fill="#000000" font-family="sans-serif" font-size="14" lengthAdjust="spacing" textLength="64.5928" x="192.36" y="243.752">body : text</text><text fill="#000000" font-family="sans-serif" font-size="14" lengthAdjust="spacing" textLength="259.834" x="192.36" y="261.3613">postType : enum (QUESTION, ANSWER)</text><text fill="#000000" font-family="sans-serif" font-size="14" lengthAdjust="spacing" textLength="112.8545" x="192.36" y="278.9707">author_id : integer</text><text fill="#000000" font-family="sans-serif" font-size="14" lengthAdjust="spacing" textLength="112.8545" x="192.36" y="296.5801">parent_id : integer</text><text fill="#000000" font-family="sans-serif" font-size="14" lengthAdjust="spacing" textLength="118.2891" x="192.36" y="314.1895">answer_id : integer</text><text fill="#000000" font-family="sans-serif" font-size="14" lengthAdjust="spacing" textLength="122.9375" x="192.36" y="331.7988">created : timestamp</text><text fill="#000000" font-family="sans-serif" font-size="14" lengthAdjust="spacing" textLength="119.0615" x="192.36" y="349.4082">update : timestamp</text></g><!--class Comment--><g id="elem_Comment"><rect codeLine="21" fill="#F1F1F1" height="153.6563" id="Comment" rx="2.5" ry="2.5" style="stroke:#181818;stroke-width:0.5;" width="134.9375" x="81.86" y="416"/><ellipse cx="115.8747" cy="432" fill="#ADD1B2" rx="11" ry="11" style="stroke:#181818;stroke-width:1;"/><path d="M114.7341,432.7969 L114.7341,435.2969 L119.0622,435.2969 L119.0622,434.375 Q119.0622,433.7656 119.2966,433.5 Q119.5466,433.2344 119.9216,433.2344 Q120.2966,433.2344 120.5309,433.5 Q120.7653,433.7656 120.7653,434.375 L120.7653,437 L112.7653,437 Q112.1403,437 111.8747,436.7656 Q111.6247,436.5313 111.6247,436.1406 Q111.6247,435.7656 111.8903,435.5313 Q112.1559,435.2969 112.7653,435.2969 L113.0309,435.2969 L113.0309,428.6406 L112.7653,428.6406 Q112.1403,428.6406 111.8747,428.4063 Q111.6247,428.1719 111.6247,427.7813 Q111.6247,427.4063 111.8747,427.1719 Q112.1403,426.9375 112.7653,426.9375 L120.3903,426.9375 L120.3903,429.5313 Q120.3903,430.1406 120.1559,430.4063 Q119.9372,430.6563 119.5466,430.6563 Q119.1716,430.6563 118.9372,430.4063 Q118.7028,430.1406 118.7028,429.5313 L118.7028,428.6406 L114.7341,428.6406 L114.7341,431.0938 L116.2184,431.0938 Q116.2184,430.4375 116.3434,430.25 Q116.6091,429.8438 117.0778,429.8438 Q117.4528,429.8438 117.6872,430.1094 Q117.9216,430.3594 117.9216,430.9688 L117.9216,432.9375 Q117.9216,433.4844 117.7966,433.6719 Q117.5309,434.0625 117.0778,434.0625 Q116.6091,434.0625 116.3434,433.6563 Q116.2184,433.4688 116.2184,432.7969 L114.7341,432.7969 Z " fill="#000000"/><text fill="#000000" font-family="sans-serif" font-size="14" lengthAdjust="spacing" textLength="60.6826" x="134.1002" y="437.7285">Comment</text><line style="stroke:#181818;stroke-width:0.5;" x1="82.86" x2="215.7975" y1="448" y2="448"/><text fill="#000000" font-family="sans-serif" font-size="14" lengthAdjust="spacing" textLength="65.3721" x="87.86" y="466.5332">id : integer</text><line style="stroke:#181818;stroke-width:1;" x1="82.86" x2="215.7975" y1="473.6094" y2="473.6094"/><text fill="#000000" font-family="sans-serif" font-size="14" lengthAdjust="spacing" textLength="64.5928" x="87.86" y="492.1426">body : text</text><text fill="#000000" font-family="sans-serif" font-size="14" lengthAdjust="spacing" textLength="112.8545" x="87.86" y="509.752">author_id : integer</text><text fill="#000000" font-family="sans-serif" font-size="14" lengthAdjust="spacing" textLength="99.6201" x="87.86" y="527.3613">post_id : integer</text><text fill="#000000" font-family="sans-serif" font-size="14" lengthAdjust="spacing" textLength="122.9375" x="87.86" y="544.9707">created : timestamp</text><text fill="#000000" font-family="sans-serif" font-size="14" lengthAdjust="spacing" textLength="119.0615" x="87.86" y="562.5801">update : timestamp</text></g><!--class Vote--><g id="elem_Vote"><rect codeLine="31" fill="#F1F1F1" height="136.0469" id="Vote" rx="2.5" ry="2.5" style="stroke:#181818;stroke-width:0.5;" width="241.5098" x="28.36" y="630"/><ellipse cx="130.465" cy="646" fill="#ADD1B2" rx="11" ry="11" style="stroke:#181818;stroke-width:1;"/><path d="M129.3244,646.7969 L129.3244,649.2969 L133.6525,649.2969 L133.6525,648.375 Q133.6525,647.7656 133.8869,647.5 Q134.1369,647.2344 134.5119,647.2344 Q134.8869,647.2344 135.1212,647.5 Q135.3556,647.7656 135.3556,648.375 L135.3556,651 L127.3556,651 Q126.7306,651 126.465,650.7656 Q126.215,650.5313 126.215,650.1406 Q126.215,649.7656 126.4806,649.5313 Q126.7462,649.2969 127.3556,649.2969 L127.6212,649.2969 L127.6212,642.6406 L127.3556,642.6406 Q126.7306,642.6406 126.465,642.4063 Q126.215,642.1719 126.215,641.7813 Q126.215,641.4063 126.465,641.1719 Q126.7306,640.9375 127.3556,640.9375 L134.9806,640.9375 L134.9806,643.5313 Q134.9806,644.1406 134.7462,644.4063 Q134.5275,644.6563 134.1369,644.6563 Q133.7619,644.6563 133.5275,644.4063 Q133.2931,644.1406 133.2931,643.5313 L133.2931,642.6406 L129.3244,642.6406 L129.3244,645.0938 L130.8087,645.0938 Q130.8087,644.4375 130.9337,644.25 Q131.1994,643.8438 131.6681,643.8438 Q132.0431,643.8438 132.2775,644.1094 Q132.5119,644.3594 132.5119,644.9688 L132.5119,646.9375 Q132.5119,647.4844 132.3869,647.6719 Q132.1212,648.0625 131.6681,648.0625 Q131.1994,648.0625 130.9337,647.6563 Q130.8087,647.4688 130.8087,646.7969 L129.3244,646.7969 Z " fill="#000000"/><text fill="#000000" font-family="sans-serif" font-size="14" lengthAdjust="spacing" textLength="28.7998" x="150.965" y="651.7285">Vote</text><line style="stroke:#181818;stroke-width:0.5;" x1="29.36" x2="268.8698" y1="662" y2="662"/><text fill="#000000" font-family="sans-serif" font-size="14" lengthAdjust="spacing" textLength="65.3721" x="34.36" y="680.5332">id : integer</text><line style="stroke:#181818;stroke-width:1;" x1="29.36" x2="268.8698" y1="687.6094" y2="687.6094"/><text fill="#000000" font-family="sans-serif" font-size="14" lengthAdjust="spacing" textLength="112.8545" x="34.36" y="706.1426">author_id : integer</text><text fill="#000000" font-family="sans-serif" font-size="14" lengthAdjust="spacing" textLength="99.6201" x="34.36" y="723.752">post_id : integer</text><text fill="#000000" font-family="sans-serif" font-size="14" lengthAdjust="spacing" textLength="122.9375" x="34.36" y="741.3613">created : timestamp</text><text fill="#000000" font-family="sans-serif" font-size="14" lengthAdjust="spacing" textLength="229.5098" x="34.36" y="758.9707">type : enum (POSITIVE, NEGATIVE)</text></g><!--class Tag--><g id="elem_Tag"><rect codeLine="40" fill="#F1F1F1" height="100.8281" id="Tag" rx="2.5" ry="2.5" style="stroke:#181818;stroke-width:0.5;" width="111.6201" x="323.36" y="442.5"/><ellipse cx="363.3332" cy="458.5" fill="#ADD1B2" rx="11" ry="11" style="stroke:#181818;stroke-width:1;"/><path d="M362.1926,459.2969 L362.1926,461.7969 L366.5207,461.7969 L366.5207,460.875 Q366.5207,460.2656 366.7551,460 Q367.0051,459.7344 367.3801,459.7344 Q367.7551,459.7344 367.9895,460 Q368.2239,460.2656 368.2239,460.875 L368.2239,463.5 L360.2239,463.5 Q359.5989,463.5 359.3332,463.2656 Q359.0832,463.0313 359.0832,462.6406 Q359.0832,462.2656 359.3489,462.0313 Q359.6145,461.7969 360.2239,461.7969 L360.4895,461.7969 L360.4895,455.1406 L360.2239,455.1406 Q359.5989,455.1406 359.3332,454.9063 Q359.0832,454.6719 359.0832,454.2813 Q359.0832,453.9063 359.3332,453.6719 Q359.5989,453.4375 360.2239,453.4375 L367.8489,453.4375 L367.8489,456.0313 Q367.8489,456.6406 367.6145,456.9063 Q367.3957,457.1563 367.0051,457.1563 Q366.6301,457.1563 366.3957,456.9063 Q366.1614,456.6406 366.1614,456.0313 L366.1614,455.1406 L362.1926,455.1406 L362.1926,457.5938 L363.677,457.5938 Q363.677,456.9375 363.802,456.75 Q364.0676,456.3438 364.5364,456.3438 Q364.9114,456.3438 365.1457,456.6094 Q365.3801,456.8594 365.3801,457.4688 L365.3801,459.4375 Q365.3801,459.9844 365.2551,460.1719 Q364.9895,460.5625 364.5364,460.5625 Q364.0676,460.5625 363.802,460.1563 Q363.677,459.9688 363.677,459.2969 L362.1926,459.2969 Z " fill="#000000"/><text fill="#000000" font-family="sans-serif" font-size="14" lengthAdjust="spacing" textLength="24.124" x="382.8829" y="464.2285">Tag</text><line style="stroke:#181818;stroke-width:0.5;" x1="324.36" x2="433.9801" y1="474.5" y2="474.5"/><text fill="#000000" font-family="sans-serif" font-size="14" lengthAdjust="spacing" textLength="65.3721" x="329.36" y="493.0332">id : integer</text><line style="stroke:#181818;stroke-width:1;" x1="324.36" x2="433.9801" y1="500.1094" y2="500.1094"/><text fill="#000000" font-family="sans-serif" font-size="14" lengthAdjust="spacing" textLength="93.3721" x="329.36" y="518.6426">name : varchar</text><text fill="#000000" font-family="sans-serif" font-size="14" lengthAdjust="spacing" textLength="99.6201" x="329.36" y="536.252">post_id : integer</text></g><!--class PostSubscribe--><g id="elem_PostSubscribe"><rect codeLine="47" fill="#F1F1F1" height="83.2188" id="PostSubscribe" rx="2.5" ry="2.5" style="stroke:#181818;stroke-width:0.5;" width="122.2686" x="470.36" y="451.5"/><ellipse cx="485.36" cy="467.5" fill="#ADD1B2" rx="11" ry="11" style="stroke:#181818;stroke-width:1;"/><path d="M484.2194,468.2969 L484.2194,470.7969 L488.5475,470.7969 L488.5475,469.875 Q488.5475,469.2656 488.7819,469 Q489.0319,468.7344 489.4069,468.7344 Q489.7819,468.7344 490.0163,469 Q490.2506,469.2656 490.2506,469.875 L490.2506,472.5 L482.2506,472.5 Q481.6256,472.5 481.36,472.2656 Q481.11,472.0313 481.11,471.6406 Q481.11,471.2656 481.3756,471.0313 Q481.6413,470.7969 482.2506,470.7969 L482.5163,470.7969 L482.5163,464.1406 L482.2506,464.1406 Q481.6256,464.1406 481.36,463.9063 Q481.11,463.6719 481.11,463.2813 Q481.11,462.9063 481.36,462.6719 Q481.6256,462.4375 482.2506,462.4375 L489.8756,462.4375 L489.8756,465.0313 Q489.8756,465.6406 489.6413,465.9063 Q489.4225,466.1563 489.0319,466.1563 Q488.6569,466.1563 488.4225,465.9063 Q488.1881,465.6406 488.1881,465.0313 L488.1881,464.1406 L484.2194,464.1406 L484.2194,466.5938 L485.7038,466.5938 Q485.7038,465.9375 485.8288,465.75 Q486.0944,465.3438 486.5631,465.3438 Q486.9381,465.3438 487.1725,465.6094 Q487.4069,465.8594 487.4069,466.4688 L487.4069,468.4375 Q487.4069,468.9844 487.2819,469.1719 Q487.0163,469.5625 486.5631,469.5625 Q486.0944,469.5625 485.8288,469.1563 Q485.7038,468.9688 485.7038,468.2969 L484.2194,468.2969 Z " fill="#000000"/><text fill="#000000" font-family="sans-serif" font-size="14" lengthAdjust="spacing" textLength="90.2686" x="499.36" y="473.2285">PostSubscribe</text><line style="stroke:#181818;stroke-width:0.5;" x1="471.36" x2="591.6286" y1="483.5" y2="483.5"/><text fill="#000000" font-family="sans-serif" font-size="14" lengthAdjust="spacing" textLength="99.6201" x="476.36" y="502.0332">post_id : integer</text><text fill="#000000" font-family="sans-serif" font-size="14" lengthAdjust="spacing" textLength="100.3926" x="476.36" y="519.6426">user_id : integer</text><line style="stroke:#181818;stroke-width:0.5;" x1="471.36" x2="591.6286" y1="526.7188" y2="526.7188"/></g><!--class TagSubscribe--><g id="elem_TagSubscribe"><rect codeLine="52" fill="#F1F1F1" height="83.2188" id="TagSubscribe" rx="2.5" ry="2.5" style="stroke:#181818;stroke-width:0.5;" width="118.3789" x="453.36" y="656.5"/><ellipse cx="468.36" cy="672.5" fill="#ADD1B2" rx="11" ry="11" style="stroke:#181818;stroke-width:1;"/><path d="M467.2194,673.2969 L467.2194,675.7969 L471.5475,675.7969 L471.5475,674.875 Q471.5475,674.2656 471.7819,674 Q472.0319,673.7344 472.4069,673.7344 Q472.7819,673.7344 473.0163,674 Q473.2506,674.2656 473.2506,674.875 L473.2506,677.5 L465.2506,677.5 Q464.6256,677.5 464.36,677.2656 Q464.11,677.0313 464.11,676.6406 Q464.11,676.2656 464.3756,676.0313 Q464.6413,675.7969 465.2506,675.7969 L465.5163,675.7969 L465.5163,669.1406 L465.2506,669.1406 Q464.6256,669.1406 464.36,668.9063 Q464.11,668.6719 464.11,668.2813 Q464.11,667.9063 464.36,667.6719 Q464.6256,667.4375 465.2506,667.4375 L472.8756,667.4375 L472.8756,670.0313 Q472.8756,670.6406 472.6413,670.9063 Q472.4225,671.1563 472.0319,671.1563 Q471.6569,671.1563 471.4225,670.9063 Q471.1881,670.6406 471.1881,670.0313 L471.1881,669.1406 L467.2194,669.1406 L467.2194,671.5938 L468.7038,671.5938 Q468.7038,670.9375 468.8288,670.75 Q469.0944,670.3438 469.5631,670.3438 Q469.9381,670.3438 470.1725,670.6094 Q470.4069,670.8594 470.4069,671.4688 L470.4069,673.4375 Q470.4069,673.9844 470.2819,674.1719 Q470.0163,674.5625 469.5631,674.5625 Q469.0944,674.5625 468.8288,674.1563 Q468.7038,673.9688 468.7038,673.2969 L467.2194,673.2969 Z " fill="#000000"/><text fill="#000000" font-family="sans-serif" font-size="14" lengthAdjust="spacing" textLength="86.3789" x="482.36" y="678.2285">TagSubscribe</text><line style="stroke:#181818;stroke-width:0.5;" x1="454.36" x2="570.7389" y1="688.5" y2="688.5"/><text fill="#000000" font-family="sans-serif" font-size="14" lengthAdjust="spacing" textLength="92.6201" x="459.36" y="707.0332">tag_id : integer</text><text fill="#000000" font-family="sans-serif" font-size="14" lengthAdjust="spacing" textLength="100.3926" x="459.36" y="724.6426">user_id : integer</text><line style="stroke:#181818;stroke-width:0.5;" x1="454.36" x2="570.7389" y1="731.7188" y2="731.7188"/></g><!--link User to Post--><g id="link_User_Post"><path codeLine="58" d="M322.36,98.48 C322.36,115.81 322.36,110.86 322.36,131.94 " fill="none" id="User-Post" style="stroke:#181818;stroke-width:1;"/><line style="stroke:#181818;stroke-width:1;" x1="318.36" x2="326.36" y1="94.48" y2="94.48"/><line style="stroke:#181818;stroke-width:1;" x1="318.36" x2="326.36" y1="97.48" y2="97.48"/><line style="stroke:#181818;stroke-width:1;" x1="322.36" x2="322.36" y1="98.48" y2="90.48"/><line style="stroke:#181818;stroke-width:1;" x1="322.36" x2="328.36" y1="141.94" y2="149.94"/><line style="stroke:#181818;stroke-width:1;" x1="322.36" x2="316.36" y1="141.94" y2="149.94"/><line style="stroke:#181818;stroke-width:1;" x1="322.36" x2="322.36" y1="141.94" y2="149.94"/><ellipse cx="322.36" cy="135.94" fill="none" rx="4" ry="4" style="stroke:#181818;stroke-width:1;"/></g><!--link User to Comment--><g id="link_User_Comment"><path codeLine="59" d="M262.279,72.3546 C227.089,88.3746 190.65,111.44 168.36,150 C121.35,231.35 122.7469,324.7185 132.5269,397.9385 " fill="none" id="User-Comment" style="stroke:#181818;stroke-width:1;"/><line style="stroke:#181818;stroke-width:1;" x1="264.2622" x2="267.5768" y1="67.0568" y2="74.3378"/><line style="stroke:#181818;stroke-width:1;" x1="261.5318" x2="264.8464" y1="68.2998" y2="75.5808"/><line style="stroke:#181818;stroke-width:1;" x1="262.279" x2="269.56" y1="72.3546" y2="69.04"/><line style="stroke:#181818;stroke-width:1;" x1="133.8508" x2="140.8572" y1="407.8504" y2="414.9856"/><line style="stroke:#181818;stroke-width:1;" x1="133.8508" x2="128.9628" y1="407.8504" y2="416.5744"/><line style="stroke:#181818;stroke-width:1;" x1="133.8508" x2="134.91" y1="407.8504" y2="415.78"/><ellipse cx="133.0565" cy="401.9032" fill="none" rx="4" ry="4" style="stroke:#181818;stroke-width:1;"/></g><!--link User to Vote--><g id="link_User_Vote"><path codeLine="60" d="M261.9228,64.3134 C215.7528,78.0634 158.16,102.5 121.36,150 C6,298.92 9.61,389.75 64.36,570 C70.72,590.94 71.8954,596.5567 84.0054,614.9067 " fill="none" id="User-Vote" style="stroke:#181818;stroke-width:1;"/><line style="stroke:#181818;stroke-width:1;" x1="264.6147" x2="266.8981" y1="59.3381" y2="67.0053"/><line style="stroke:#181818;stroke-width:1;" x1="261.7395" x2="264.0229" y1="60.1944" y2="67.8616"/><line style="stroke:#181818;stroke-width:1;" x1="261.9228" x2="269.59" y1="64.3134" y2="62.03"/><line style="stroke:#181818;stroke-width:1;" x1="89.5135" x2="98.9278" y1="623.253" y2="626.6251"/><line style="stroke:#181818;stroke-width:1;" x1="89.5135" x2="88.9122" y1="623.253" y2="633.2349"/><line style="stroke:#181818;stroke-width:1;" x1="89.5135" x2="93.92" y1="623.253" y2="629.93"/><ellipse cx="86.2087" cy="618.2452" fill="none" rx="4" ry="4" style="stroke:#181818;stroke-width:1;"/></g><!--link Post to Comment--><g id="link_Post_Comment"><path codeLine="62" d="M243.2868,362.7814 C228.8168,382.6914 229.173,382.1998 215.443,401.0898 " fill="none" id="Post-Comment" style="stroke:#181818;stroke-width:1;"/><line style="stroke:#181818;stroke-width:1;" x1="242.4027" x2="248.8741" y1="357.1941" y2="361.8973"/><line style="stroke:#181818;stroke-width:1;" x1="240.6389" x2="247.1104" y1="359.6209" y2="364.3241"/><line style="stroke:#181818;stroke-width:1;" x1="243.2868" x2="247.99" y1="362.7814" y2="356.31"/><line style="stroke:#181818;stroke-width:1;" x1="209.5635" x2="209.7134" y1="409.1788" y2="419.1777"/><line style="stroke:#181818;stroke-width:1;" x1="209.5635" x2="200.0066" y1="409.1788" y2="412.1223"/><line style="stroke:#181818;stroke-width:1;" x1="209.5635" x2="204.86" y1="409.1788" y2="415.65"/><ellipse cx="213.0912" cy="404.3254" fill="none" rx="4" ry="4" style="stroke:#181818;stroke-width:1;"/></g><!--link Post to Vote--><g id="link_Post_Vote"><path codeLine="63" d="M300.8324,363.9623 C286.4824,427.3023 265.81,501.56 234.36,570 C225,590.37 222.5576,596.1617 210.0876,614.8317 " fill="none" id="Post-Vote" style="stroke:#181818;stroke-width:1;"/><line style="stroke:#181818;stroke-width:1;" x1="297.815" x2="305.6173" y1="359.1773" y2="360.945"/><line style="stroke:#181818;stroke-width:1;" x1="297.1522" x2="304.9544" y1="362.1032" y2="363.8708"/><line style="stroke:#181818;stroke-width:1;" x1="300.8324" x2="302.6" y1="363.9623" y2="356.16"/><line style="stroke:#181818;stroke-width:1;" x1="204.5334" x2="205.0794" y1="623.1474" y2="633.1325"/><line style="stroke:#181818;stroke-width:1;" x1="204.5334" x2="195.1006" y1="623.1474" y2="626.4675"/><line style="stroke:#181818;stroke-width:1;" x1="204.5334" x2="200.09" y1="623.1474" y2="629.8"/><ellipse cx="207.8659" cy="618.158" fill="none" rx="4" ry="4" style="stroke:#181818;stroke-width:1;"/></g><!--link Post to Tag--><g id="link_Post_Tag"><path codeLine="64" d="M348.7329,364.0901 C355.8829,393.9501 357.3159,399.9554 363.3059,424.9554 " fill="none" id="Post-Tag" style="stroke:#181818;stroke-width:1;"/><line style="stroke:#181818;stroke-width:1;" x1="343.9114" x2="351.6915" y1="361.1315" y2="359.2686"/><line style="stroke:#181818;stroke-width:1;" x1="344.61" x2="352.3901" y1="364.049" y2="362.1861"/><line style="stroke:#181818;stroke-width:1;" x1="348.7329" x2="346.87" y1="364.0901" y2="356.31"/><line style="stroke:#181818;stroke-width:1;" x1="365.636" x2="373.3349" y1="434.6802" y2="441.062"/><line style="stroke:#181818;stroke-width:1;" x1="365.636" x2="361.6651" y1="434.6802" y2="443.858"/><line style="stroke:#181818;stroke-width:1;" x1="365.636" x2="367.5" y1="434.6802" y2="442.46"/><ellipse cx="364.2379" cy="428.8453" fill="none" rx="4" ry="4" style="stroke:#181818;stroke-width:1;"/></g><!--link Post to Post--><g id="link_Post_Post"><path codeLine="67" d="M476.3739,237.8487 C497.1239,240.5087 493.36,244.04 493.36,253 C493.36,261.96 487.2051,266.7628 466.4551,269.4228 " fill="none" id="Post-Post" style="stroke:#181818;stroke-width:1;"/><line style="stroke:#181818;stroke-width:1;" x1="466.4551" x2="457.7571" y1="236.5772" y2="241.5113"/><line style="stroke:#181818;stroke-width:1;" x1="466.4551" x2="459.2829" y1="236.5772" y2="229.6087"/><line style="stroke:#181818;stroke-width:1;" x1="466.4551" x2="458.52" y1="236.5772" y2="235.56"/><ellipse cx="472.4064" cy="237.3401" fill="none" rx="4" ry="4" style="stroke:#181818;stroke-width:1;"/><line style="stroke:#181818;stroke-width:1;" x1="462.9961" x2="461.9789" y1="273.8989" y2="265.9639"/><line style="stroke:#181818;stroke-width:1;" x1="465.9718" x2="464.9546" y1="273.5175" y2="265.5824"/><line style="stroke:#181818;stroke-width:1;" x1="466.4551" x2="458.52" y1="269.4228" y2="270.44"/></g><!--link Post to Post--><g id="link_Post_Post"><path codeLine="68" d="M476.5485,215.5242 C515.9185,216.9342 528.36,228.99 528.36,253 C528.36,277.01 505.9249,289.4237 466.5549,290.8337 " fill="none" id="Post-Post-1" style="stroke:#181818;stroke-width:1;"/><line style="stroke:#181818;stroke-width:1;" x1="466.5549" x2="458.3453" y1="215.1663" y2="220.8762"/><line style="stroke:#181818;stroke-width:1;" x1="466.5549" x2="458.7747" y1="215.1663" y2="208.8838"/><line style="stroke:#181818;stroke-width:1;" x1="466.5549" x2="458.56" y1="215.1663" y2="214.88"/><ellipse cx="472.551" cy="215.3811" fill="none" rx="4" ry="4" style="stroke:#181818;stroke-width:1;"/><line style="stroke:#181818;stroke-width:1;" x1="462.7006" x2="462.4143" y1="294.9743" y2="286.9794"/><line style="stroke:#181818;stroke-width:1;" x1="465.6987" x2="465.4124" y1="294.8669" y2="286.872"/><line style="stroke:#181818;stroke-width:1;" x1="466.5549" x2="458.56" y1="290.8337" y2="291.12"/></g><!--link Post to PostSubscribe--><g id="link_Post_PostSubscribe"><path codeLine="71" d="M417.4882,362.3217 C446.9182,395.8417 460.7721,411.6154 483.7821,437.8154 " fill="none" id="Post-PostSubscribe" style="stroke:#181818;stroke-width:1;"/><line style="stroke:#181818;stroke-width:1;" x1="411.8432" x2="417.855" y1="361.955" y2="356.6768"/><line style="stroke:#181818;stroke-width:1;" x1="413.8226" x2="419.8343" y1="364.2093" y2="358.9312"/><line style="stroke:#181818;stroke-width:1;" x1="417.4882" x2="412.21" y1="362.3217" y2="356.31"/><line style="stroke:#181818;stroke-width:1;" x1="490.3809" x2="500.1682" y1="445.3291" y2="447.3807"/><line style="stroke:#181818;stroke-width:1;" x1="490.3809" x2="491.1518" y1="445.3291" y2="455.2993"/><line style="stroke:#181818;stroke-width:1;" x1="490.3809" x2="495.66" y1="445.3291" y2="451.34"/><ellipse cx="486.4216" cy="440.8209" fill="none" rx="4" ry="4" style="stroke:#181818;stroke-width:1;"/></g><!--link User to PostSubscribe--><g id="link_User_PostSubscribe"><path codeLine="72" d="M382.7081,64.4565 C427.1981,78.1065 480.77,102.29 511.36,150 C571.4,243.62 557.8973,365.293 544.3673,433.603 " fill="none" id="User-PostSubscribe" style="stroke:#181818;stroke-width:1;"/><line style="stroke:#181818;stroke-width:1;" x1="377.7108" x2="380.0573" y1="67.1073" y2="59.4592"/><line style="stroke:#181818;stroke-width:1;" x1="380.5788" x2="382.9254" y1="67.9873" y2="60.3391"/><line style="stroke:#181818;stroke-width:1;" x1="382.7081" x2="375.06" y1="64.4565" y2="62.11"/><line style="stroke:#181818;stroke-width:1;" x1="542.4243" x2="546.7557" y1="443.4125" y2="452.4258"/><line style="stroke:#181818;stroke-width:1;" x1="542.4243" x2="534.9843" y1="443.4125" y2="450.0942"/><line style="stroke:#181818;stroke-width:1;" x1="542.4243" x2="540.87" y1="443.4125" y2="451.26"/><ellipse cx="543.5901" cy="437.5268" fill="none" rx="4" ry="4" style="stroke:#181818;stroke-width:1;"/></g><!--link Tag to TagSubscribe--><g id="link_Tag_TagSubscribe"><path codeLine="74" d="M416.283,550.3525 C438.963,584.9825 454.6124,608.8658 475.8824,641.3158 " fill="none" id="Tag-TagSubscribe" style="stroke:#181818;stroke-width:1;"/><line style="stroke:#181818;stroke-width:1;" x1="410.7453" x2="417.4377" y1="549.1977" y2="544.8147"/><line style="stroke:#181818;stroke-width:1;" x1="412.3889" x2="419.0814" y1="551.7074" y2="547.3244"/><line style="stroke:#181818;stroke-width:1;" x1="416.283" x2="411.9" y1="550.3525" y2="543.66"/><line style="stroke:#181818;stroke-width:1;" x1="481.3644" x2="490.7681" y1="649.6792" y2="653.0808"/><line style="stroke:#181818;stroke-width:1;" x1="481.3644" x2="480.7319" y1="649.6792" y2="659.6592"/><line style="stroke:#181818;stroke-width:1;" x1="481.3644" x2="485.75" y1="649.6792" y2="656.37"/><ellipse cx="478.0752" cy="644.6611" fill="none" rx="4" ry="4" style="stroke:#181818;stroke-width:1;"/></g><!--link User to TagSubscribe--><g id="link_User_TagSubscribe"><path codeLine="75" d="M382.9372,58.726 C437.6072,69.566 513.51,93.25 559.36,150 C677.54,296.26 671.05,392.02 610.36,570 C599.26,602.55 588.1922,619.963 567.1522,643.023 " fill="none" id="User-TagSubscribe" style="stroke:#181818;stroke-width:1;"/><line style="stroke:#181818;stroke-width:1;" x1="378.2356" x2="379.7916" y1="61.8716" y2="54.0244"/><line style="stroke:#181818;stroke-width:1;" x1="381.1783" x2="382.7343" y1="62.4551" y2="54.6078"/><line style="stroke:#181818;stroke-width:1;" x1="382.9372" x2="375.09" y1="58.726" y2="57.17"/><line style="stroke:#181818;stroke-width:1;" x1="560.4121" x2="559.4523" y1="650.4102" y2="660.3641"/><line style="stroke:#181818;stroke-width:1;" x1="560.4121" x2="550.5877" y1="650.4102" y2="652.2759"/><line style="stroke:#181818;stroke-width:1;" x1="560.4121" x2="555.02" y1="650.4102" y2="656.32"/><ellipse cx="564.4562" cy="645.9779" fill="none" rx="4" ry="4" style="stroke:#181818;stroke-width:1;"/></g><!--link Comment to Vote--><g id="link_Comment_Vote"><path codeLine="78" d="M149.36,578.17 C149.36,597.74 149.36,592.66 149.36,611.75 " fill="none" id="Comment-Vote" style="stroke:#181818;stroke-width:1;"/><line style="stroke:#181818;stroke-width:1;" x1="145.36" x2="153.36" y1="574.17" y2="574.17"/><line style="stroke:#181818;stroke-width:1;" x1="145.36" x2="153.36" y1="577.17" y2="577.17"/><line style="stroke:#181818;stroke-width:1;" x1="149.36" x2="149.36" y1="578.17" y2="570.17"/><line style="stroke:#181818;stroke-width:1;" x1="149.36" x2="155.36" y1="621.75" y2="629.75"/><line style="stroke:#181818;stroke-width:1;" x1="149.36" x2="143.36" y1="621.75" y2="629.75"/><line style="stroke:#181818;stroke-width:1;" x1="149.36" x2="149.36" y1="621.75" y2="629.75"/><ellipse cx="149.36" cy="615.75" fill="none" rx="4" ry="4" style="stroke:#181818;stroke-width:1;"/></g><!--SRC=[hPFFJi8m7CVlVOhVJKdO2tWZPZ5S0Dt0eodGm1AtBbsdBeo3Pm- -WSOtC4GZCGAlKDx8tuPcxTWI4hqqxRU_R_lvzWyBf2SJw4TCm8m0U6Cu0I-GRC843YqBcu3w3DKRAaPJAiYS4BPpzNWaQrrOSQtR08PydA0WsPt4KOXcDmcp4XR4FXoVzst7RNSxJMXrd4lxee55D9PJBgvAwuTK845PfK5qo_PgHu9HoJ9DUZwB9FL3LEDmZAeX5h5EkUzZjpQPcQC64TFz0yg0urGTnrztblhfzxfEssqFx2PqxBDMrcje72wT7FeygWZC9-F4msWalE4kMHLl79Klqa0n5v1qSf3_2DJJzbwjr5ejr6hxeDu1Xulje_fGIvB_W3IrB3xB8GtXvqKOMdOrXEHVe5IbQtcLBY1-ZlAYNjMNMXS4krtpqZcth3Ij4JBpCsPuKnkrHFidmkiR62Uy5wkO8TcT5b3L5cE2aD-VeOVx1W00]--></g></svg>